# Made in Blockbench 4.12.2
mtllib Мечик опиздюлькин.mtl

o cuboid
v 0 1.1312499999999999 -0.16250000000000003
v 0 0.734375 -0.09999999999999999
v 0 0.484375 -0.03125
v 0 0.484375 0
v 0 0.484375 0.04843750000000002
v 0 0.734375 0.05781250000000002
v 0 1.8406249999999993 0.05781250000000002
v 0 1.6015625 -0.0703125
v 0.021874999999999985 1.7093749999999994 0.03125
v 0.03437499999999999 0.984375 -0.09999999999999999
v 0.026562499999999982 0.484375 0.03125
v 0.021874999999999978 0.484375 -0.03125
v 0.03437499999999999 0.734375 -0.06874999999999998
v 0.03437499999999999 0.734375 0.03125
v 0.03437499999999999 1.3468749999999998 -0.034375
v 0.03437499999999999 0.734375 -0.03125
v 0.03437499999999999 0.484375 0
v -0.021874999999999985 1.7093749999999994 0.03125
v -0.03437499999999999 0.984375 -0.09999999999999999
v -0.026562499999999982 0.484375 0.03125
v -0.021874999999999978 0.484375 -0.03125
v -0.03437499999999999 0.734375 -0.06874999999999998
v -0.03437499999999999 0.734375 0.03125
v -0.03437499999999999 1.3468749999999998 -0.034375
v -0.03437499999999999 0.734375 -0.03125
v -0.03437499999999999 0.484375 0
vt 0.21185342709721067 0.7523526110991764
vt 0.2311324606172365 0.8806605740963608
vt 0.16671383978330312 1
vt 0.17848556784205183 0.9334942127418719
vt 0.53671875 0.375
vt 0.51953125 0.375
vt 0.51953125 0.359375
vt 0.53046875 0.359375
vt 0.17846509774784264 0.9336053372111546
vt 0.1616491673551989 0.9993306186468044
vt 0.15838818985507785 0.4462152313624298
vt 0.17956594680211857 0.4460903746137388
vt 0.28125 0.872320456801315
vt 0.2836803898225534 0.84375
vt 0.484564275943678 0.84375
vt 0.4071607501809793 0.875
vt 0.44609375 0.6796875
vt 0.45703125 0.6796875
vt 0.45703125 0.809328125
vt 0.43984375 0.8051843750000001
vt 0.3984375 0.398490625
vt 0.376715625 0.398490625
vt 0.37958125 0.2734375
vt 0.395346875 0.273475
vt 0.24466538859190134 0.5711055856999327
vt 0.27911181014492215 0.6451228460734916
vt 0.2332415665964194 0.8803219543460182
vt 0.21185342709721067 0.7523526110991764
vt 0.5328125 0.390625
vt 0.51953125 0.39921874999999996
vt 0.51953125 0.375
vt 0.53671875 0.375
vt 0.21185342709721067 0.7523526110991764
vt 0.21029092709721067 0.44610261109917637
vt 0.2290409270972107 0.44610261109917637
vt 0.2446659270972107 0.5711026110991764
vt 0.2102909277427583 0.4461027376265212
vt 0.19468115458627752 0.3211008626344457
vt 0.21151175313130924 0.3209527775964559
vt 0.22770246083842938 0.44627142865947644
vt 0.2102909277427583 0.4461027376265212
vt 0.21185342709721067 0.7523526110991764
vt 0.17846509774784264 0.9336053372111546
vt 0.17956592733493604 0.44609899572555567
vt 0.19468115121456545 0.3211008356340319
vt 0.2102909277427583 0.4461027376265212
vt 0.17904092797450885 0.4460989317875381
vt 0.17905615133044073 0.3210989327145404
vt 0.11045361464370762 1
vt 0.048008433403580596 0.8796162111202511
vt 0.06939721400586954 0.7516430320306455
vt 0.09977838019626628 0.933309425779915
vt 0.51953125 0.359375
vt 0.51953125 0.375
vt 0.50234375 0.375
vt 0.50859375 0.359375
vt 0.12286181014492215 0.4455094881366627
vt 0.11960083264480108 0.9986248754210373
vt 0.10278490225215735 0.9328995939853875
vt 0.10168405319788143 0.4453846313879717
vt 0.3179698291837361 0.6173767759436781
vt 0.3179698291837361 0.4164928898225534
vt 0.3410704568013151 0.4140625
vt 0.34375 0.5399732501809793
vt 0.45703125 0.809328125
vt 0.45703125 0.6796875
vt 0.46796875 0.6796875
vt 0.47421875 0.8051843750000001
vt 0.61260625 0.8671875
vt 0.615471875 0.992240625
vt 0.59375 0.992240625
vt 0.596840625 0.867225
vt 0.048008433403580596 0.8796162111202511
vt 0.0021381898550778544 0.6444171028477245
vt 0.03658461140809866 0.5703998424741656
vt 0.06939657290278933 0.7516468678734093
vt 0.51953125 0.375
vt 0.51953125 0.39921874999999996
vt 0.50625 0.390625
vt 0.50234375 0.375
vt 0.052209072902789325 0.44539686787340926
vt 0.07095907290278933 0.44539686787340926
vt 0.06939657290278933 0.7516468678734093
vt 0.036584072902789325 0.5703968678734093
vt 0.06961310919550662 0.3202409537461325
vt 0.08644148323323542 0.3205520868507611
vt 0.06962142315788844 0.44539686787340926
vt 0.052209072902789325 0.44539686787340926
vt 0.10278490225215735 0.9328995939853875
vt 0.06939657290278933 0.7516468678734093
vt 0.07095907225724171 0.4453969944007541
vt 0.10168407266506396 0.44539325249978856
vt 0.10086999323855053 0.44569581254044677
vt 0.06962142315788844 0.44539686787340926
vt 0.08644148686636954 0.3205520598842797
vt 0.10206577190670059 0.3207015322177984
vn 0.9753639061562734 0.10420826098347148 -0.19443736500574504
vn 0 -1 0
vn 0.7719302356170501 0 0.6357072528610992
vn 0.6681519027028777 -0.1157428492871127 -0.734967092973165
vn 0 -0.26515648302104233 -0.9642053928037904
vn 0.6111784895417427 -0.029660132580702176 0.790936868818725
vn 0.9336269418975868 0.06890980157984004 -0.3515567843310483
vn 0 -1 0
vn 1 0 0
vn 0.9274777915203365 -0.04637388957601686 -0.3709911166081349
vn 0.9832692522815495 0.0009293660229504264 0.18215574049828334
vn 1 0 0
vn -0.9753639061562733 0.10420826098347147 -0.19443736500574496
vn 0 -1 0
vn -0.7719302356170501 0 0.6357072528610992
vn -0.6681519027028777 -0.11574284928711273 -0.7349670929731651
vn 0 -0.26515648302104233 -0.9642053928037904
vn -0.6111784895417427 -0.02966013258070217 0.790936868818725
vn -0.9336269418975868 0.06890980157984004 -0.3515567843310483
vn 0 -1 0
vn -1 0 0
vn -0.9274777915203365 -0.04637388957601686 -0.3709911166081349
vn -0.9832692522815495 0.000929366022950426 0.18215574049828331
vn -1 0 0
usemtl m_cefffc7d-10ae-5802-e697-450d83226965
f 15/1/1 8/2/1 7/3/1 9/4/1
f 17/5/2 4/6/2 3/7/2 12/8/2
f 9/9/3 7/10/3 6/11/3 14/12/3
f 13/13/4 2/14/4 1/15/4 10/16/4
f 12/17/5 3/18/5 2/19/5 13/20/5
f 14/21/6 6/22/6 5/23/6 11/24/6
f 10/25/7 1/26/7 8/27/7 15/28/7
f 11/29/8 5/30/8 4/31/8 17/32/8
f 15/33/9 16/34/9 13/35/9 10/36/9
f 16/37/10 17/38/10 12/39/10 13/40/10
f 16/41/11 15/42/11 9/43/11 14/44/11
f 17/45/12 16/46/12 14/47/12 11/48/12
f 7/49/13 8/50/13 24/51/13 18/52/13
f 3/53/14 4/54/14 26/55/14 21/56/14
f 6/57/15 7/58/15 18/59/15 23/60/15
f 1/61/16 2/62/16 22/63/16 19/64/16
f 2/65/17 3/66/17 21/67/17 22/68/17
f 5/69/18 6/70/18 23/71/18 20/72/18
f 8/73/19 1/74/19 19/75/19 24/76/19
f 4/77/20 5/78/20 20/79/20 26/80/20
f 22/81/21 25/82/21 24/83/21 19/84/21
f 21/85/22 26/86/22 25/87/22 22/88/22
f 18/89/23 24/90/23 25/91/23 23/92/23
f 23/93/24 25/94/24 26/95/24 20/96/24
o cuboid
v 0 0.46875000000000006 0.05937499999999999
v 0 0.4375 -0.053124999999999964
v 0 0.5125 -0.05624999999999996
v 0 0.5125 0.07187499999999997
v 0 0.49062500000000003 0.06562499999999998
v 0 0.47500000000000003 -0.05624999999999998
v 0.1359375 0.4890624999999998 0.07187499999999997
v 0.1359375 0.4781249999999997 -0.07187499999999997
v 0.07968750000000004 0.4453125 0.09687499999999993
v 0.05156249999999997 0.4140625000000001 -0.07187499999999997
v 0.09374999999999997 0.4460937499999999 -0.07187499999999997
v 0.1078125 0.4789062499999999 0.10312499999999991
v -0.1359375 0.4890624999999998 0.07187499999999997
v -0.1359375 0.4781249999999997 -0.07187499999999997
v -0.07968750000000004 0.4453125 0.09687499999999993
v -0.05156249999999997 0.4140625000000001 -0.07187499999999997
v -0.09374999999999997 0.4460937499999999 -0.07187499999999997
v -0.1078125 0.4789062499999999 0.10312499999999991
vt 0.4044311641076439 0.68206875
vt 0.31776241410764394 0.70359375
vt 0.31976553910764394 0.68155625
vt 0.4027624141076439 0.65625
vt 0.6181875989058567 0.6875
vt 0.5956539420515219 0.71875
vt 0.5382551365982498 0.7080969797912203
vt 0.53125 0.6875
vt 0.44519716093722494 0.48124999999999996
vt 0.39767601834706223 0.4667961472787385
vt 0.4185643585760145 0.45051452101452094
vt 0.4453125 0.46295884062302983
vt 0.45 0.55489375
vt 0.4421875 0.625
vt 0.378125 0.625
vt 0.378125 0.5562343750000001
vt 0.625 0.75
vt 0.625 0.8073746536277671
vt 0.5994875875721202 0.8072777601710903
vt 0.59375 0.7625172208549933
vt 0.31776115916888004 0.7035940616758565
vt 0.4044311641076439 0.68206875
vt 0.40625 0.708490200692568
vt 0.3346953699248585 0.7167337163003217
vt 0.35403099467540794 0.930799314631696
vt 0.41053207817550974 0.9208240167804648
vt 0.4215239435509931 0.9394468207371163
vt 0.35399974467540796 0.931177439631696
vt 0.39767841093722495 0.466796875
vt 0.44519716093722494 0.48124999999999996
vt 0.44519716093722494 0.5
vt 0.376869035937225 0.4828125
vt 0.39898446089235606 0.77530625
vt 0.40098758589235606 0.79734375
vt 0.3143188358923561 0.77581875
vt 0.3159875858923561 0.75
vt 0.5049719797912203 0.9132551365982498
vt 0.515625 0.9706539420515219
vt 0.4760197679412512 0.9931875989058567
vt 0.4760197679412512 0.90625
vt 0.5267481414239855 0.6067645210145209
vt 0.5476364816529378 0.6230461472787385
vt 0.500115339062775 0.6375
vt 0.5 0.6192088406230298
vt 0.3547360155529342 0.9312091599780219
vt 0.3519786045281816 0.9952122895162763
vt 0.2816010564490069 1
vt 0.2860341196754079 0.928249314631696
vt 0.65625 0.38893112792176554
vt 0.65625 0.4003069198756528
vt 0.59375 0.39981823051335075
vt 0.6064125267159557 0.3828125
vt 0.3125 0.802240200692568
vt 0.3143188358923561 0.77581875
vt 0.40098884083111996 0.7973440616758565
vt 0.3840546300751415 0.8104837163003217
vt 0.2860341196754079 0.928249314631696
vt 0.29993411967540795 0.911683689631696
vt 0.35403099467540794 0.930799314631696
vt 0.35399974467540796 0.931177439631696
vt 0.500115339062775 0.65625
vt 0.500115339062775 0.6375
vt 0.547634089062775 0.623046875
vt 0.568443464062775 0.6390625
vn 0.7598092319215979 -0.6473417724633236 0.060320483343173345
vn -0.3788284698741837 -0.8917039367807691 0.24769553799465835
vn -0.11631787950561628 0.15319915837325163 -0.9813257200242151
vn 0.24515673640893865 0.9694834576171573 0
vn -0.3422971339602115 -0.25812570757655257 0.9034399765179362
vn 0.6016638808141325 -0.792435355218619 0.10023363868092691
vn -0.0031518533991323804 0.951859726538527 0.30651774306579865
vn -0.16439898730535704 5.4755862279439995e-16 -0.9863939238321437
vn -0.7598092319215979 -0.6473417724633236 0.06032048334317334
vn 0.3788284698741837 -0.8917039367807691 0.24769553799465835
vn 0.11631787950561628 0.15319915837325163 -0.9813257200242151
vn -0.2451567364089386 0.9694834576171573 0
vn 0.3422971339602115 -0.25812570757655284 0.9034399765179362
vn -0.6016638808141325 -0.792435355218619 0.1002336386809269
vn 0.0031518533991323804 0.951859726538527 0.30651774306579865
vn 0.164398987305357 5.475586227943998e-16 -0.9863939238321437
usemtl m_cefffc7d-10ae-5802-e697-450d83226965
f 37/97/25 38/98/25 35/99/25 36/100/25
f 35/101/26 27/102/26 28/103/26 36/104/26
f 32/105/27 37/106/27 36/107/27 28/108/27
f 34/109/28 29/110/28 30/111/28 33/112/28
f 38/113/29 31/114/29 27/115/29 35/116/29
f 38/117/30 37/118/30 34/119/30 33/120/30
f 31/121/31 38/122/31 33/123/31 30/124/31
f 37/125/32 32/126/32 29/127/32 34/128/32
f 41/129/33 44/130/33 43/131/33 42/132/33
f 28/133/34 27/134/34 41/135/34 42/136/34
f 42/137/35 43/138/35 32/139/35 28/140/35
f 30/141/36 29/142/36 40/143/36 39/144/36
f 27/145/37 31/146/37 44/147/37 41/148/37
f 40/149/38 43/150/38 44/151/38 39/152/38
f 39/153/39 44/154/39 31/155/39 30/156/39
f 29/157/40 32/158/40 43/159/40 40/160/40
o cylinder
v 0 0.22812500000000005 -2.6020852139652106e-17
v 0 0.46875 -2.6020852139652106e-17
v 0.00753607103712531 0.28125 -0.03125
v 0.00753607103712531 0.46875 -0.03125
v 0.02058892896287466 0.34375 -0.02287658773652743
v 0.02058892896287466 0.46875 -0.02287658773652743
v 0.02812499999999998 0.28125 -0.008373412263472598
v 0.02812499999999998 0.46875 -0.008373412263472598
v 0.028124999999999987 0.28125 0.008373412263472536
v 0.028124999999999987 0.46875 0.008373412263472536
v 0.02058892896287467 0.34375 0.022876587736527367
v 0.02058892896287467 0.46875 0.022876587736527367
v 0.007536071037125319 0.28125 0.031249999999999948
v 0.007536071037125319 0.46875 0.031249999999999948
v -0.00753607103712531 0.28125 -0.03125
v -0.00753607103712531 0.46875 -0.03125
v -0.02058892896287466 0.34375 -0.02287658773652743
v -0.02058892896287466 0.46875 -0.02287658773652743
v -0.02812499999999998 0.28125 -0.008373412263472598
v -0.02812499999999998 0.46875 -0.008373412263472598
v -0.028124999999999987 0.28125 0.008373412263472536
v -0.028124999999999987 0.46875 0.008373412263472536
v -0.02058892896287467 0.34375 0.022876587736527367
v -0.02058892896287467 0.46875 0.022876587736527367
v -0.007536071037125319 0.28125 0.031249999999999948
v -0.007536071037125319 0.46875 0.031249999999999948
vt 0.5467375 0.78125
vt 0.5392 0.78125
vt 0.54296875 0.750434375
vt 0.5392 0.78125
vt 0.5467375 0.78125
vt 0.5467375 0.875
vt 0.5392 0.875
vt 0.01939375 1
vt 0.01185625 1
vt 0.015625 0.984375
vt 0.5779875 0.46875
vt 0.57045 0.46875
vt 0.57421875 0.437934375
vt 0.57045 0.46875
vt 0.5779875 0.46875
vt 0.5779875 0.5625
vt 0.57045 0.5625
vt 0.01185625 0.96875
vt 0.01939375 0.96875
vt 0.015625 0.984375
vt 0.6543039989911931 0.546875
vt 0.6848268824955858 0.557129208290034
vt 0.625 0.557129208290034
vt 0.531446875 0.875
vt 0.531446875 0.8125
vt 0.5392 0.78125
vt 0.5392 0.875
vt 0.025918750000000004 0.9958125
vt 0.01939375 1
vt 0.015625 0.984375
vt 0.6655377600597755 0.9973257263981182
vt 0.65625 0.9663901220782647
vt 0.6655377600597755 0.9375
vt 0.4573125 0.40625
vt 0.4573125 0.3125
vt 0.465484375 0.34375
vt 0.465484375 0.40625
vt 0.0296875 0.9885625
vt 0.025918750000000004 0.9958125
vt 0.015625 0.984375
vt 0.60575 0.342553125
vt 0.597375 0.342553125
vt 0.6015625 0.3125
vt 0.4489375 0.40625
vt 0.4489375 0.3125
vt 0.4573125 0.3125
vt 0.4573125 0.40625
vt 0.0296875 0.9801875
vt 0.0296875 0.9885625
vt 0.015625 0.984375
vt 0.6878143956801465 0.734375
vt 0.71875 0.7436627600597756
vt 0.6589242736018818 0.7436627600597755
vt 0.440765625 0.40625
vt 0.440765625 0.34375
vt 0.4489375 0.3125
vt 0.4489375 0.40625
vt 0.025918750000000004 0.9729375
vt 0.0296875 0.9801875
vt 0.015625 0.984375
vt 0.640625 0.6535768824955858
vt 0.630370791709966 0.6230539989911932
vt 0.640625 0.59375
vt 0.5779875 0.5625
vt 0.5779875 0.46875
vt 0.585740625 0.5
vt 0.585740625 0.5625
vt 0.01939375 0.96875
vt 0.025918750000000004 0.9729375
vt 0.015625 0.984375
vt 0.640625 0.49732688249558576
vt 0.630370791709966 0.4668039989911932
vt 0.640625 0.4375
vt 0.5467375 0.78125
vt 0.554490625 0.8125
vt 0.554490625 0.875
vt 0.5467375 0.875
vt 0.01185625 1
vt 0.005331249999999999 0.9958125
vt 0.015625 0.984375
vt 0.6878143956801465 0.796875
vt 0.71875 0.8061627600597755
vt 0.6589242736018818 0.8061627600597755
vt 0.503265625 0.5
vt 0.5114375 0.46875
vt 0.5114375 0.5625
vt 0.503265625 0.5625
vt 0.005331249999999999 0.9958125
vt 0.0015624999999999997 0.9885625
vt 0.015625 0.984375
vt 0.5198125 0.46875
vt 0.5114375 0.46875
vt 0.515625 0.438696875
vt 0.5114375 0.46875
vt 0.5198125 0.46875
vt 0.5198125 0.5625
vt 0.5114375 0.5625
vt 0.0015624999999999997 0.9885625
vt 0.0015624999999999997 0.9801875
vt 0.015625 0.984375
vt 0.6655377600597755 0.9035757263981182
vt 0.65625 0.8726401220782647
vt 0.6655377600597755 0.84375
vt 0.5198125 0.46875
vt 0.527984375 0.5
vt 0.527984375 0.5625
vt 0.5198125 0.5625
vt 0.0015624999999999997 0.9801875
vt 0.005331249999999999 0.9729375
vt 0.015625 0.984375
vt 0.3105539989911931 0.359375
vt 0.34107688249558576 0.369629208290034
vt 0.28125 0.369629208290034
vt 0.562696875 0.5
vt 0.57045 0.46875
vt 0.57045 0.5625
vt 0.562696875 0.5625
vt 0.005331249999999999 0.9729375
vt 0.01185625 0.96875
vt 0.015625 0.984375
vn 0 -0.5070201265633939 -0.8619342151577697
vn 0 0 -1
vn 0 1 0
vn 0 -0.5070201265633939 0.8619342151577695
vn 0 0 1
vn 0 1 0
vn 0.9772112574428443 -0.19194246607780321 -0.09064352179249488
vn 0.5399492471560382 0 -0.8416975766245427
vn 0 1 0
vn 0.11118803636362377 -0.21190190902064623 -0.9709453133534387
vn 0.887356509416114 0 -0.4610839676207036
vn 0 1 0
vn 0.8837879163470619 -0.46788772041903287 -3.661894573040086e-16
vn 1 0 -4.143408735633886e-16
vn 0 1 0
vn 0.11118803636362405 -0.21190190902064623 0.9709453133534388
vn 0.887356509416114 0 0.4610839676207036
vn 0 1 0
vn 0.9772112574428443 -0.1919424660778032 0.09064352179249459
vn 0.5399492471560388 0 0.8416975766245424
vn 0 1 0
vn -0.9772112574428443 -0.1919424660778032 -0.09064352179249487
vn -0.5399492471560382 0 -0.8416975766245425
vn 0 1 0
vn -0.11118803636362377 -0.21190190902064623 -0.9709453133534387
vn -0.887356509416114 0 -0.4610839676207036
vn 0 1 0
vn -0.8837879163470619 -0.46788772041903287 -3.661894573040086e-16
vn -1 0 -4.143408735633886e-16
vn 0 1 0
vn -0.11118803636362415 -0.2119019090206462 0.9709453133534388
vn -0.887356509416114 0 0.4610839676207036
vn 0 1 0
vn -0.9772112574428443 -0.1919424660778032 0.09064352179249456
vn -0.5399492471560388 0 0.8416975766245424
vn 0 1 0
usemtl m_cefffc7d-10ae-5802-e697-450d83226965
f 59/161/41 47/162/41 45/163/41
f 47/164/42 59/165/42 60/166/42 48/167/42
f 48/168/43 60/169/43 46/170/43
f 57/171/44 69/172/44 45/173/44
f 69/174/45 57/175/45 58/176/45 70/177/45
f 70/178/46 58/179/46 46/180/46
f 47/181/47 49/182/47 45/183/47
f 50/184/48 49/185/48 47/186/48 48/187/48
f 50/188/49 48/189/49 46/190/49
f 49/191/50 51/192/50 45/193/50
f 52/194/51 51/195/51 49/196/51 50/197/51
f 52/198/52 50/199/52 46/200/52
f 51/201/53 53/202/53 45/203/53
f 54/204/54 53/205/54 51/206/54 52/207/54
f 54/208/55 52/209/55 46/210/55
f 53/211/56 55/212/56 45/213/56
f 56/214/57 55/215/57 53/216/57 54/217/57
f 56/218/58 54/219/58 46/220/58
f 55/221/59 57/222/59 45/223/59
f 58/224/60 57/225/60 55/226/60 56/227/60
f 58/228/61 56/229/61 46/230/61
f 61/231/62 59/232/62 45/233/62
f 59/234/63 61/235/63 62/236/63 60/237/63
f 60/238/64 62/239/64 46/240/64
f 63/241/65 61/242/65 45/243/65
f 61/244/66 63/245/66 64/246/66 62/247/66
f 62/248/67 64/249/67 46/250/67
f 65/251/68 63/252/68 45/253/68
f 63/254/69 65/255/69 66/256/69 64/257/69
f 64/258/70 66/259/70 46/260/70
f 67/261/71 65/262/71 45/263/71
f 65/264/72 67/265/72 68/266/72 66/267/72
f 66/268/73 68/269/73 46/270/73
f 69/271/74 67/272/74 45/273/74
f 67/274/75 69/275/75 70/276/75 68/277/75
f 68/278/76 70/279/76 46/280/76