{"asset":{"version":"2.0","generator":"Blockbench 4.12.4 glTF exporter"},"scenes":[{"nodes":[15],"name":"blockbench_export"}],"scene":0,"nodes":[{"name":"Head","mesh":0},{"rotation":[0.45198159683444705,-0.1645078476838459,0.29985821064453033,0.8238536627839148],"translation":[-0.18125,0.30625,0.1875],"name":"Big horn1","mesh":1},{"rotation":[0.37518584350332096,0.12700974629930034,-0.08770368547282811,0.9140088460918594],"translation":[0.13125,-0.06875,-0.4125],"name":"Horn2","mesh":2},{"rotation":[-0.016116116904924524,0.6154504930523998,0.02062773678493751,0.7877407300962647],"translation":[-0.23125,0.0625,-1.00625],"name":"Tooth3","mesh":3},{"rotation":[-0.01228933654560866,-0.46931067622908995,-0.023112853020896516,0.8826450347732646],"translation":[0.1625,0.0625,-1.16875],"name":"Tooth2","mesh":4},{"rotation":[-0.016116116904924524,-0.6154504930523998,-0.02062773678493751,0.7877407300962647],"translation":[0.25625,0.0625,-0.88125],"name":"Tooth6","mesh":5},{"rotation":[-0.01228933654560866,0.46931067622908995,0.023112853020896516,0.8826450347732646],"translation":[-0.1625,0.0625,-1.16875],"name":"Tooth1","mesh":6},{"rotation":[-0.016116116904924524,0.6154504930523998,0.02062773678493751,0.7877407300962647],"translation":[-0.325,0.0875,-0.5125],"name":"Tooth7","mesh":7},{"rotation":[-0.016116116904924524,-0.6154504930523998,-0.02062773678493751,0.7877407300962647],"translation":[0.23125,0.0625,-1.00625],"name":"Tooth4","mesh":8},{"rotation":[-0.016116116904924524,-0.6154504930523998,-0.02062773678493751,0.7877407300962647],"translation":[0.325,0.0875,-0.5125],"name":"Tooth8","mesh":9},{"rotation":[-0.016116116904924524,0.6154504930523998,0.02062773678493751,0.7877407300962647],"translation":[-0.2625,0.0625,-0.88125],"name":"Tooth5","mesh":10},{"rotation":[0.37518584350332096,-0.12700974629930034,0.08770368547282811,0.9140088460918594],"translation":[-0.13125,-0.06875,-0.4125],"name":"Horn1","mesh":11},{"rotation":[0.45198159683444705,0.1645078476838459,-0.29985821064453033,0.8238536627839148],"translation":[0.18125,0.30625,0.1875],"name":"Big horn2","mesh":12},{"rotation":[0.26202371228462024,-0.30719918891738823,-0.6567675198296021,0.6368898314669175],"translation":[0.5625,0.2125,-0.0625],"name":"Horn4","mesh":13},{"rotation":[0.26202371228462024,0.30719918891738823,0.6567675198296021,0.6368898314669175],"translation":[-0.5625,0.2125,-0.0625],"name":"Horn3","mesh":14},{"children":[0,1,2,3,4,5,6,7,8,9,10,11,12,13,14]}],"bufferViews":[{"buffer":0,"byteOffset":0,"byteLength":3504,"target":34962,"byteStride":12},{"buffer":0,"byteOffset":3504,"byteLength":3504,"target":34962,"byteStride":12},{"buffer":0,"byteOffset":7008,"byteLength":2336,"target":34962,"byteStride":8},{"buffer":0,"byteOffset":9344,"byteLength":852,"target":34963},{"buffer":0,"byteOffset":10196,"byteLength":816,"target":34962,"byteStride":12},{"buffer":0,"byteOffset":11012,"byteLength":816,"target":34962,"byteStride":12},{"buffer":0,"byteOffset":11828,"byteLength":544,"target":34962,"byteStride":8},{"buffer":0,"byteOffset":12372,"byteLength":204,"target":34963},{"buffer":0,"byteOffset":12576,"byteLength":624,"target":34962,"byteStride":12},{"buffer":0,"byteOffset":13200,"byteLength":624,"target":34962,"byteStride":12},{"buffer":0,"byteOffset":13824,"byteLength":416,"target":34962,"byteStride":8},{"buffer":0,"byteOffset":14240,"byteLength":156,"target":34963},{"buffer":0,"byteOffset":14396,"byteLength":240,"target":34962,"byteStride":12},{"buffer":0,"byteOffset":14636,"byteLength":240,"target":34962,"byteStride":12},{"buffer":0,"byteOffset":14876,"byteLength":160,"target":34962,"byteStride":8},{"buffer":0,"byteOffset":15036,"byteLength":60,"target":34963},{"buffer":0,"byteOffset":15096,"byteLength":240,"target":34962,"byteStride":12},{"buffer":0,"byteOffset":15336,"byteLength":240,"target":34962,"byteStride":12},{"buffer":0,"byteOffset":15576,"byteLength":160,"target":34962,"byteStride":8},{"buffer":0,"byteOffset":15736,"byteLength":60,"target":34963},{"buffer":0,"byteOffset":15796,"byteLength":240,"target":34962,"byteStride":12},{"buffer":0,"byteOffset":16036,"byteLength":240,"target":34962,"byteStride":12},{"buffer":0,"byteOffset":16276,"byteLength":160,"target":34962,"byteStride":8},{"buffer":0,"byteOffset":16436,"byteLength":60,"target":34963},{"buffer":0,"byteOffset":16496,"byteLength":240,"target":34962,"byteStride":12},{"buffer":0,"byteOffset":16736,"byteLength":240,"target":34962,"byteStride":12},{"buffer":0,"byteOffset":16976,"byteLength":160,"target":34962,"byteStride":8},{"buffer":0,"byteOffset":17136,"byteLength":60,"target":34963},{"buffer":0,"byteOffset":17196,"byteLength":240,"target":34962,"byteStride":12},{"buffer":0,"byteOffset":17436,"byteLength":240,"target":34962,"byteStride":12},{"buffer":0,"byteOffset":17676,"byteLength":160,"target":34962,"byteStride":8},{"buffer":0,"byteOffset":17836,"byteLength":60,"target":34963},{"buffer":0,"byteOffset":17896,"byteLength":240,"target":34962,"byteStride":12},{"buffer":0,"byteOffset":18136,"byteLength":240,"target":34962,"byteStride":12},{"buffer":0,"byteOffset":18376,"byteLength":160,"target":34962,"byteStride":8},{"buffer":0,"byteOffset":18536,"byteLength":60,"target":34963},{"buffer":0,"byteOffset":18596,"byteLength":240,"target":34962,"byteStride":12},{"buffer":0,"byteOffset":18836,"byteLength":240,"target":34962,"byteStride":12},{"buffer":0,"byteOffset":19076,"byteLength":160,"target":34962,"byteStride":8},{"buffer":0,"byteOffset":19236,"byteLength":60,"target":34963},{"buffer":0,"byteOffset":19296,"byteLength":240,"target":34962,"byteStride":12},{"buffer":0,"byteOffset":19536,"byteLength":240,"target":34962,"byteStride":12},{"buffer":0,"byteOffset":19776,"byteLength":160,"target":34962,"byteStride":8},{"buffer":0,"byteOffset":19936,"byteLength":60,"target":34963},{"buffer":0,"byteOffset":19996,"byteLength":624,"target":34962,"byteStride":12},{"buffer":0,"byteOffset":20620,"byteLength":624,"target":34962,"byteStride":12},{"buffer":0,"byteOffset":21244,"byteLength":416,"target":34962,"byteStride":8},{"buffer":0,"byteOffset":21660,"byteLength":156,"target":34963},{"buffer":0,"byteOffset":21816,"byteLength":816,"target":34962,"byteStride":12},{"buffer":0,"byteOffset":22632,"byteLength":816,"target":34962,"byteStride":12},{"buffer":0,"byteOffset":23448,"byteLength":544,"target":34962,"byteStride":8},{"buffer":0,"byteOffset":23992,"byteLength":204,"target":34963},{"buffer":0,"byteOffset":24196,"byteLength":432,"target":34962,"byteStride":12},{"buffer":0,"byteOffset":24628,"byteLength":432,"target":34962,"byteStride":12},{"buffer":0,"byteOffset":25060,"byteLength":288,"target":34962,"byteStride":8},{"buffer":0,"byteOffset":25348,"byteLength":108,"target":34963},{"buffer":0,"byteOffset":25456,"byteLength":432,"target":34962,"byteStride":12},{"buffer":0,"byteOffset":25888,"byteLength":432,"target":34962,"byteStride":12},{"buffer":0,"byteOffset":26320,"byteLength":288,"target":34962,"byteStride":8},{"buffer":0,"byteOffset":26608,"byteLength":108,"target":34963}],"buffers":[{"byteLength":26716,"uri":"data:application/octet-stream;base64,"}],"accessors":[{"bufferView":0,"componentType":5126,"count":292,"max":[0.6439356207847595,0.8125,0.893750011920929],"min":[-0.6439356207847595,0.02500000037252903,-1.350000023841858],"type":"VEC3"},{"bufferView":1,"componentType":5126,"count":292,"max":[0.990878164768219,0.9893726110458374,1],"min":[-0.990878164768219,-1,-0.9881355166435242],"type":"VEC3"},{"bufferView":2,"componentType":5126,"count":292,"max":[0.6496325731277466,0.5699737071990967],"min":[0.0010396094294264913,0],"type":"VEC2"},{"bufferView":3,"componentType":5123,"count":426,"max":[291],"min":[0],"type":"SCALAR"},{"bufferView":4,"componentType":5126,"count":68,"max":[0.24162937700748444,1.7368143796920776,0.1875],"min":[-0.1875,0.21875,-0.34563562273979187],"type":"VEC3"},{"bufferView":5,"componentType":5126,"count":68,"max":[0.9943761825561523,1,0.9971953630447388],"min":[-0.9973519444465637,-0.3437131643295288,-0.9818790555000305],"type":"VEC3"},{"bufferView":6,"componentType":5126,"count":68,"max":[0.4903523325920105,0.578125],"min":[0,0],"type":"VEC2"},{"bufferView":7,"componentType":5123,"count":102,"max":[67],"min":[0],"type":"SCALAR"},{"bufferView":8,"componentType":5126,"count":52,"max":[0.0625,1.2368143796920776,0.0625],"min":[-0.11662937700748444,0.71875,-0.22063562273979187],"type":"VEC3"},{"bufferView":9,"componentType":5126,"count":52,"max":[0.9960461258888245,1,0.9932485222816467],"min":[-0.9899097084999084,-0.4697006344795227,-0.9979576468467712],"type":"VEC3"},{"bufferView":10,"componentType":5126,"count":52,"max":[0.5459597706794739,0.570507824420929],"min":[0.0018351562321186066,0.003975808620452881],"type":"VEC2"},{"bufferView":11,"componentType":5123,"count":78,"max":[51],"min":[0],"type":"SCALAR"},{"bufferView":12,"componentType":5126,"count":20,"max":[0.05000000074505806,0.10625000298023224,0.03750000149011612],"min":[-0.05000000074505806,0,-0.03750000149011612],"type":"VEC3"},{"bufferView":13,"componentType":5126,"count":20,"max":[0.9452936053276062,-0.13979028165340424,0.9901811480522156],"min":[-0.9452936053276062,-1,-0.9901811480522156],"type":"VEC3"},{"bufferView":14,"componentType":5126,"count":20,"max":[0.567187488079071,0.3125],"min":[0.14218750596046448,0],"type":"VEC2"},{"bufferView":15,"componentType":5123,"count":30,"max":[19],"min":[0],"type":"SCALAR"},{"bufferView":16,"componentType":5126,"count":20,"max":[0.05000000074505806,0.14374999701976776,0.03750000149011612],"min":[-0.05000000074505806,-0.03125,-0.03750000149011612],"type":"VEC3"},{"bufferView":17,"componentType":5126,"count":20,"max":[0.9787468910217285,-0.08540114015340805,0.996346652507782],"min":[-0.9787468910217285,-1,-0.996346652507782],"type":"VEC3"},{"bufferView":18,"componentType":5126,"count":20,"max":[0.5437335968017578,0.5],"min":[0.3984375,0.1640625],"type":"VEC2"},{"bufferView":19,"componentType":5123,"count":30,"max":[19],"min":[0],"type":"SCALAR"},{"bufferView":20,"componentType":5126,"count":20,"max":[0.05000000074505806,0.10625000298023224,0.03750000149011612],"min":[-0.05000000074505806,0,-0.03750000149011612],"type":"VEC3"},{"bufferView":21,"componentType":5126,"count":20,"max":[0.9452936053276062,-0.13979028165340424,0.9901811480522156],"min":[-0.9452936053276062,-1,-0.9901811480522156],"type":"VEC3"},{"bufferView":22,"componentType":5126,"count":20,"max":[0.567187488079071,0.5],"min":[0.25,0.1328125],"type":"VEC2"},{"bufferView":23,"componentType":5123,"count":30,"max":[19],"min":[0],"type":"SCALAR"},{"bufferView":24,"componentType":5126,"count":20,"max":[0.05000000074505806,0.14374999701976776,0.03750000149011612],"min":[-0.05000000074505806,-0.03125,-0.03750000149011612],"type":"VEC3"},{"bufferView":25,"componentType":5126,"count":20,"max":[0.9787468910217285,-0.08540114015340805,0.996346652507782],"min":[-0.9787468910217285,-1,-0.996346652507782],"type":"VEC3"},{"bufferView":26,"componentType":5126,"count":20,"max":[0.5437335968017578,0.5546875],"min":[0.3671875,0.015625],"type":"VEC2"},{"bufferView":27,"componentType":5123,"count":30,"max":[19],"min":[0],"type":"SCALAR"},{"bufferView":28,"componentType":5126,"count":20,"max":[0.05000000074505806,0.10625000298023224,0.03750000149011612],"min":[-0.05000000074505806,0,-0.03750000149011612],"type":"VEC3"},{"bufferView":29,"componentType":5126,"count":20,"max":[0.9452936053276062,-0.13979028165340424,0.9901811480522156],"min":[-0.9452936053276062,-1,-0.9901811480522156],"type":"VEC3"},{"bufferView":30,"componentType":5126,"count":20,"max":[0.567187488079071,0.546875],"min":[0.4140625,0],"type":"VEC2"},{"bufferView":31,"componentType":5123,"count":30,"max":[19],"min":[0],"type":"SCALAR"},{"bufferView":32,"componentType":5126,"count":20,"max":[0.05000000074505806,0.10625000298023224,0.03750000149011612],"min":[-0.05000000074505806,0,-0.03750000149011612],"type":"VEC3"},{"bufferView":33,"componentType":5126,"count":20,"max":[0.9452936053276062,-0.13979028165340424,0.9901811480522156],"min":[-0.9452936053276062,-1,-0.9901811480522156],"type":"VEC3"},{"bufferView":34,"componentType":5126,"count":20,"max":[0.567187488079071,0.421875],"min":[0.109375,0.0625],"type":"VEC2"},{"bufferView":35,"componentType":5123,"count":30,"max":[19],"min":[0],"type":"SCALAR"},{"bufferView":36,"componentType":5126,"count":20,"max":[0.05000000074505806,0.10625000298023224,0.03750000149011612],"min":[-0.05000000074505806,0,-0.03750000149011612],"type":"VEC3"},{"bufferView":37,"componentType":5126,"count":20,"max":[0.9452936053276062,-0.13979028165340424,0.9901811480522156],"min":[-0.9452936053276062,-1,-0.9901811480522156],"type":"VEC3"},{"bufferView":38,"componentType":5126,"count":20,"max":[0.574999988079071,0.5703125],"min":[0.4140625,0.046875],"type":"VEC2"},{"bufferView":39,"componentType":5123,"count":30,"max":[19],"min":[0],"type":"SCALAR"},{"bufferView":40,"componentType":5126,"count":20,"max":[0.05000000074505806,0.10625000298023224,0.03750000149011612],"min":[-0.05000000074505806,0,-0.03750000149011612],"type":"VEC3"},{"bufferView":41,"componentType":5126,"count":20,"max":[0.9452936053276062,-0.13979028165340424,0.9901811480522156],"min":[-0.9452936053276062,-1,-0.9901811480522156],"type":"VEC3"},{"bufferView":42,"componentType":5126,"count":20,"max":[0.567187488079071,0.453125],"min":[0.15625,0.0859375],"type":"VEC2"},{"bufferView":43,"componentType":5123,"count":30,"max":[19],"min":[0],"type":"SCALAR"},{"bufferView":44,"componentType":5126,"count":52,"max":[0.11662937700748444,1.2368143796920776,0.0625],"min":[-0.0625,0.71875,-0.22063562273979187],"type":"VEC3"},{"bufferView":45,"componentType":5126,"count":52,"max":[0.9899097084999084,1,0.9932485222816467],"min":[-0.9960461258888245,-0.4697006344795227,-0.9979576468467712],"type":"VEC3"},{"bufferView":46,"componentType":5126,"count":52,"max":[0.5059773325920105,0.5695203542709351],"min":[0,0.0030242204666137695],"type":"VEC2"},{"bufferView":47,"componentType":5123,"count":78,"max":[51],"min":[0],"type":"SCALAR"},{"bufferView":48,"componentType":5126,"count":68,"max":[0.1875,1.7368143796920776,0.1875],"min":[-0.24162937700748444,0.21875,-0.34563562273979187],"type":"VEC3"},{"bufferView":49,"componentType":5126,"count":68,"max":[0.9973519444465637,1,0.9971953630447388],"min":[-0.9943761825561523,-0.3437131643295288,-0.9818790555000305],"type":"VEC3"},{"bufferView":50,"componentType":5126,"count":68,"max":[0.4903523325920105,0.572266161441803],"min":[0.0005230468814261258,0],"type":"VEC2"},{"bufferView":51,"componentType":5123,"count":102,"max":[67],"min":[0],"type":"SCALAR"},{"bufferView":52,"componentType":5126,"count":36,"max":[0.11237812787294388,0.40625,0.0625],"min":[-0.0625,0.0047587500885128975,-0.10285187512636185],"type":"VEC3"},{"bufferView":53,"componentType":5126,"count":36,"max":[1,1,0.9951498508453369],"min":[-1,-0.12687891721725464,-0.991720974445343],"type":"VEC3"},{"bufferView":54,"componentType":5126,"count":36,"max":[0.5382856130599976,0.5741976499557495],"min":[0.3141023516654968,0],"type":"VEC2"},{"bufferView":55,"componentType":5123,"count":54,"max":[35],"min":[0],"type":"SCALAR"},{"bufferView":56,"componentType":5126,"count":36,"max":[0.0625,0.40625,0.0625],"min":[-0.11237812787294388,0.0047587500885128975,-0.10285187512636185],"type":"VEC3"},{"bufferView":57,"componentType":5126,"count":36,"max":[1,1,0.9951498508453369],"min":[-1,-0.12687891721725464,-0.991720974445343],"type":"VEC3"},{"bufferView":58,"componentType":5126,"count":36,"max":[0.5304731130599976,0.5741976499557495],"min":[0.17262734472751617,0.1328125],"type":"VEC2"},{"bufferView":59,"componentType":5123,"count":54,"max":[35],"min":[0],"type":"SCALAR"}],"materials":[{"pbrMetallicRoughness":{"metallicFactor":0,"roughnessFactor":1,"baseColorTexture":{"index":0}},"alphaMode":"MASK","alphaCutoff":0.05,"doubleSided":true}],"textures":[{"sampler":0,"source":0,"name":"skull_of_dragon.png"}],"samplers":[{"magFilter":9728,"minFilter":9728,"wrapS":33071,"wrapT":33071}],"images":[{"mimeType":"image/png","uri":"data:image/png;base64,"}],"meshes":[{"primitives":[{"mode":4,"attributes":{"POSITION":0,"NORMAL":1,"TEXCOORD_0":2},"indices":3,"material":0}]},{"primitives":[{"mode":4,"attributes":{"POSITION":4,"NORMAL":5,"TEXCOORD_0":6},"indices":7,"material":0}]},{"primitives":[{"mode":4,"attributes":{"POSITION":8,"NORMAL":9,"TEXCOORD_0":10},"indices":11,"material":0}]},{"primitives":[{"mode":4,"attributes":{"POSITION":12,"NORMAL":13,"TEXCOORD_0":14},"indices":15,"material":0}]},{"primitives":[{"mode":4,"attributes":{"POSITION":16,"NORMAL":17,"TEXCOORD_0":18},"indices":19,"material":0}]},{"primitives":[{"mode":4,"attributes":{"POSITION":20,"NORMAL":21,"TEXCOORD_0":22},"indices":23,"material":0}]},{"primitives":[{"mode":4,"attributes":{"POSITION":24,"NORMAL":25,"TEXCOORD_0":26},"indices":27,"material":0}]},{"primitives":[{"mode":4,"attributes":{"POSITION":28,"NORMAL":29,"TEXCOORD_0":30},"indices":31,"material":0}]},{"primitives":[{"mode":4,"attributes":{"POSITION":32,"NORMAL":33,"TEXCOORD_0":34},"indices":35,"material":0}]},{"primitives":[{"mode":4,"attributes":{"POSITION":36,"NORMAL":37,"TEXCOORD_0":38},"indices":39,"material":0}]},{"primitives":[{"mode":4,"attributes":{"POSITION":40,"NORMAL":41,"TEXCOORD_0":42},"indices":43,"material":0}]},{"primitives":[{"mode":4,"attributes":{"POSITION":44,"NORMAL":45,"TEXCOORD_0":46},"indices":47,"material":0}]},{"primitives":[{"mode":4,"attributes":{"POSITION":48,"NORMAL":49,"TEXCOORD_0":50},"indices":51,"material":0}]},{"primitives":[{"mode":4,"attributes":{"POSITION":52,"NORMAL":53,"TEXCOORD_0":54},"indices":55,"material":0}]},{"primitives":[{"mode":4,"attributes":{"POSITION":56,"NORMAL":57,"TEXCOORD_0":58},"indices":59,"material":0}]}]}