{"asset":{"version":"2.0","generator":"Blockbench 4.12.4 glTF exporter"},"scenes":[{"nodes":[2],"name":"blockbench_export"}],"scene":0,"nodes":[{"translation":[0,0.19375000000000012,0],"name":"Krishka","mesh":0},{"name":"Grob","mesh":1},{"children":[0,1]}],"bufferViews":[{"buffer":0,"byteOffset":0,"byteLength":2208,"target":34962,"byteStride":12},{"buffer":0,"byteOffset":2208,"byteLength":2208,"target":34962,"byteStride":12},{"buffer":0,"byteOffset":4416,"byteLength":1472,"target":34962,"byteStride":8},{"buffer":0,"byteOffset":5888,"byteLength":528,"target":34963},{"buffer":0,"byteOffset":6416,"byteLength":4080,"target":34962,"byteStride":12},{"buffer":0,"byteOffset":10496,"byteLength":4080,"target":34962,"byteStride":12},{"buffer":0,"byteOffset":14576,"byteLength":2720,"target":34962,"byteStride":8},{"buffer":0,"byteOffset":17296,"byteLength":996,"target":34963}],"buffers":[{"byteLength":18292,"uri":"data:application/octet-stream;base64,"}],"accessors":[{"bufferView":0,"componentType":5126,"count":184,"max":[0.7316941618919373,1.225000023841858,3.1680164337158203],"min":[-0.7316941618919373,0.8645833134651184,-0.9375],"type":"VEC3"},{"bufferView":1,"componentType":5126,"count":184,"max":[1,1,1],"min":[-1,-1,-1],"type":"VEC3"},{"bufferView":2,"componentType":5126,"count":184,"max":[0.56640625,0.47662031650543213],"min":[0.0001675781240919605,0],"type":"VEC2"},{"bufferView":3,"componentType":5123,"count":264,"max":[183],"min":[0],"type":"SCALAR"},{"bufferView":4,"componentType":5126,"count":340,"max":[0.7004441618919373,1.0625,3.1367664337158203],"min":[-0.7004441618919373,0,-0.90625],"type":"VEC3"},{"bufferView":5,"componentType":5126,"count":340,"max":[1,1,1],"min":[-1,-1,-1],"type":"VEC3"},{"bufferView":6,"componentType":5126,"count":340,"max":[0.55859375,0.5107421875],"min":[0,0],"type":"VEC2"},{"bufferView":7,"componentType":5123,"count":498,"max":[339],"min":[0],"type":"SCALAR"}],"materials":[{"pbrMetallicRoughness":{"metallicFactor":0,"roughnessFactor":1,"baseColorTexture":{"index":0}},"alphaMode":"MASK","alphaCutoff":0.05,"doubleSided":true}],"textures":[{"sampler":0,"source":0,"name":"texture"}],"samplers":[{"magFilter":9728,"minFilter":9728,"wrapS":33071,"wrapT":33071}],"images":[{"mimeType":"image/png","uri":"data:image/png;base64,"}],"meshes":[{"primitives":[{"mode":4,"attributes":{"POSITION":0,"NORMAL":1,"TEXCOORD_0":2},"indices":3,"material":0}]},{"primitives":[{"mode":4,"attributes":{"POSITION":4,"NORMAL":5,"TEXCOORD_0":6},"indices":7,"material":0}]}]}