{"asset":{"version":"2.0","generator":"Blockbench 5.0.7 glTF exporter"},"scenes":[{"nodes":[55],"name":"blockbench_export"}],"scene":0,"nodes":[{"translation":[0,-0.6875,0],"name":"mesh","mesh":0},{"scale":[0.0196078431372549,0.0196078431372549,0.0196078431372549],"name":"leftleg_3"},{"translation":[0,-0.94375,0],"name":"leftleg_3","children":[1]},{"translation":[0,-1.0625,0],"name":"leftlegniz","children":[0,2]},{"translation":[0,-0.5,0],"name":"mesh_v","mesh":1},{"scale":[0.0196078431372549,0.0196078431372549,0.0196078431372549],"name":"leftleg_1"},{"translation":[0,-0.1937500000000001,0],"name":"leftleg_1","children":[5]},{"scale":[0.0196078431372549,0.0196078431372549,0.0196078431372549],"name":"leftleg_2"},{"translation":[0,-0.9437500000000001,0],"name":"leftleg_2","children":[7]},{"translation":[-0.1875,0,0],"name":"leftlegz","children":[3,4,6,8]},{"translation":[0,-0.6875,0],"name":"mesh_v","mesh":2},{"scale":[0.0196078431372549,0.0196078431372549,0.0196078431372549],"name":"rightleg_3"},{"translation":[0,-0.94375,0],"name":"rightleg_3","children":[11]},{"translation":[0,-1.0625,0],"name":"rightlegniz","children":[10,12]},{"translation":[0,-0.75,0],"name":"mesh_v","mesh":3},{"scale":[0.0196078431372549,0.0196078431372549,0.0196078431372549],"name":"rightleg_1"},{"translation":[0,-0.1937500000000001,0],"name":"rightleg_1","children":[15]},{"scale":[0.0196078431372549,0.0196078431372549,0.0196078431372549],"name":"rightleg_2"},{"translation":[0,-0.9437500000000001,0],"name":"rightleg_2","children":[17]},{"translation":[0.1875,0,0],"name":"rightlegz","children":[13,14,16,18]},{"translation":[0,-0.7437499999999999,0],"name":"legos","children":[9,19]},{"translation":[0,-0.6875,0],"name":"mesh_v","mesh":4},{"scale":[0.0196078431372549,0.0196078431372549,0.0196078431372549],"name":"rightarm_3"},{"translation":[0,-0.9312500000000001,0],"name":"rightarm_3","children":[22]},{"translation":[0,-1.0593749999999997,0],"name":"rightarmniz","children":[21,23]},{"translation":[0,-0.7531249999999998,0],"name":"mesh_v","mesh":5},{"scale":[0.0196078431372549,0.0196078431372549,0.0196078431372549],"name":"rightarm_1"},{"translation":[0,-0.06562499999999982,0],"name":"rightarm_1","children":[26]},{"scale":[0.0196078431372549,0.0196078431372549,0.0196078431372549],"name":"rightarm_2"},{"translation":[0,-0.9906249999999996,0],"name":"rightarm_2","children":[28]},{"translation":[0.5625,0,0],"name":"rightarmz","children":[24,25,27,29]},{"translation":[0,-0.6875,0],"name":"mesh_v","mesh":6},{"scale":[0.0196078431372549,0.0196078431372549,0.0196078431372549],"name":"leftarm_3"},{"translation":[0,-0.9312500000000001,0],"name":"leftarm_3","children":[32]},{"translation":[0,-1.0593749999999997,0],"name":"leftarmniz","children":[31,33]},{"translation":[0,-0.7531249999999998,0],"name":"mesh_v","mesh":7},{"scale":[0.0196078431372549,0.0196078431372549,0.0196078431372549],"name":"leftarm_1"},{"translation":[0,-0.06562499999999982,0],"name":"leftarm_1","children":[36]},{"scale":[0.0196078431372549,0.0196078431372549,0.0196078431372549],"name":"leftarm_2"},{"translation":[0,-0.9906249999999996,0],"name":"leftarm_2","children":[38]},{"translation":[-0.5625,0,0],"name":"leftarmz","children":[34,35,37,39]},{"translation":[0,0.4406249999999998,0],"name":"armos","children":[30,40]},{"name":"mesh","mesh":8},{"scale":[0.0196078431372549,0.0196078431372549,0.0196078431372549],"name":"head_1"},{"translation":[0,0.0625,0],"name":"head_1","children":[43]},{"scale":[0.0196078431372549,0.0196078431372549,0.0196078431372549],"name":"head_2"},{"translation":[0,0.4750000000000001,0],"name":"head_2","children":[45]},{"translation":[0,0.5,0],"name":"headz","children":[42,44,46]},{"name":"mesh","mesh":9},{"translation":[0,-0.5,0],"name":"mesh","mesh":10},{"scale":[0.0196078431372549,0.0196078431372549,0.0196078431372549],"name":"body_1"},{"translation":[0,0.4375,0],"name":"body_1","children":[50]},{"scale":[0.0196078431372549,0.0196078431372549,0.0196078431372549],"name":"body_2"},{"translation":[0,-0.6875,0],"name":"body_2","children":[52]},{"translation":[0,1.0625,0],"name":"bodyz","children":[20,41,47,48,49,51,53]},{"translation":[0,1.6875,0],"name":"testbolvan","children":[54]}],"bufferViews":[{"buffer":0,"byteOffset":0,"byteLength":288,"target":34962,"byteStride":12},{"buffer":0,"byteOffset":288,"byteLength":288,"target":34962,"byteStride":12},{"buffer":0,"byteOffset":576,"byteLength":192,"target":34962,"byteStride":8},{"buffer":0,"byteOffset":768,"byteLength":72,"target":34963},{"buffer":0,"byteOffset":840,"byteLength":288,"target":34962,"byteStride":12},{"buffer":0,"byteOffset":1128,"byteLength":288,"target":34962,"byteStride":12},{"buffer":0,"byteOffset":1416,"byteLength":192,"target":34962,"byteStride":8},{"buffer":0,"byteOffset":1608,"byteLength":72,"target":34963},{"buffer":0,"byteOffset":1680,"byteLength":288,"target":34962,"byteStride":12},{"buffer":0,"byteOffset":1968,"byteLength":288,"target":34962,"byteStride":12},{"buffer":0,"byteOffset":2256,"byteLength":192,"target":34962,"byteStride":8},{"buffer":0,"byteOffset":2448,"byteLength":72,"target":34963},{"buffer":0,"byteOffset":2520,"byteLength":288,"target":34962,"byteStride":12},{"buffer":0,"byteOffset":2808,"byteLength":288,"target":34962,"byteStride":12},{"buffer":0,"byteOffset":3096,"byteLength":192,"target":34962,"byteStride":8},{"buffer":0,"byteOffset":3288,"byteLength":72,"target":34963},{"buffer":0,"byteOffset":3360,"byteLength":288,"target":34962,"byteStride":12},{"buffer":0,"byteOffset":3648,"byteLength":288,"target":34962,"byteStride":12},{"buffer":0,"byteOffset":3936,"byteLength":192,"target":34962,"byteStride":8},{"buffer":0,"byteOffset":4128,"byteLength":72,"target":34963},{"buffer":0,"byteOffset":4200,"byteLength":288,"target":34962,"byteStride":12},{"buffer":0,"byteOffset":4488,"byteLength":288,"target":34962,"byteStride":12},{"buffer":0,"byteOffset":4776,"byteLength":192,"target":34962,"byteStride":8},{"buffer":0,"byteOffset":4968,"byteLength":72,"target":34963},{"buffer":0,"byteOffset":5040,"byteLength":288,"target":34962,"byteStride":12},{"buffer":0,"byteOffset":5328,"byteLength":288,"target":34962,"byteStride":12},{"buffer":0,"byteOffset":5616,"byteLength":192,"target":34962,"byteStride":8},{"buffer":0,"byteOffset":5808,"byteLength":72,"target":34963},{"buffer":0,"byteOffset":5880,"byteLength":288,"target":34962,"byteStride":12},{"buffer":0,"byteOffset":6168,"byteLength":288,"target":34962,"byteStride":12},{"buffer":0,"byteOffset":6456,"byteLength":192,"target":34962,"byteStride":8},{"buffer":0,"byteOffset":6648,"byteLength":72,"target":34963},{"buffer":0,"byteOffset":6720,"byteLength":288,"target":34962,"byteStride":12},{"buffer":0,"byteOffset":7008,"byteLength":288,"target":34962,"byteStride":12},{"buffer":0,"byteOffset":7296,"byteLength":192,"target":34962,"byteStride":8},{"buffer":0,"byteOffset":7488,"byteLength":72,"target":34963},{"buffer":0,"byteOffset":7560,"byteLength":288,"target":34962,"byteStride":12},{"buffer":0,"byteOffset":7848,"byteLength":288,"target":34962,"byteStride":12},{"buffer":0,"byteOffset":8136,"byteLength":192,"target":34962,"byteStride":8},{"buffer":0,"byteOffset":8328,"byteLength":72,"target":34963},{"buffer":0,"byteOffset":8400,"byteLength":288,"target":34962,"byteStride":12},{"buffer":0,"byteOffset":8688,"byteLength":288,"target":34962,"byteStride":12},{"buffer":0,"byteOffset":8976,"byteLength":192,"target":34962,"byteStride":8},{"buffer":0,"byteOffset":9168,"byteLength":72,"target":34963},{"buffer":0,"byteOffset":9240,"byteLength":4},{"buffer":0,"byteOffset":9244,"byteLength":16},{"buffer":0,"byteOffset":9260,"byteLength":8},{"buffer":0,"byteOffset":9268,"byteLength":32},{"buffer":0,"byteOffset":9300,"byteLength":8},{"buffer":0,"byteOffset":9308,"byteLength":32},{"buffer":0,"byteOffset":9340,"byteLength":8},{"buffer":0,"byteOffset":9348,"byteLength":32},{"buffer":0,"byteOffset":9380,"byteLength":4},{"buffer":0,"byteOffset":9384,"byteLength":16},{"buffer":0,"byteOffset":9400,"byteLength":8},{"buffer":0,"byteOffset":9408,"byteLength":32},{"buffer":0,"byteOffset":9440,"byteLength":8},{"buffer":0,"byteOffset":9448,"byteLength":32},{"buffer":0,"byteOffset":9480,"byteLength":12},{"buffer":0,"byteOffset":9492,"byteLength":48},{"buffer":0,"byteOffset":9540,"byteLength":4},{"buffer":0,"byteOffset":9544,"byteLength":16},{"buffer":0,"byteOffset":9560,"byteLength":4},{"buffer":0,"byteOffset":9564,"byteLength":16},{"buffer":0,"byteOffset":9580,"byteLength":12},{"buffer":0,"byteOffset":9592,"byteLength":48},{"buffer":0,"byteOffset":9640,"byteLength":12},{"buffer":0,"byteOffset":9652,"byteLength":48},{"buffer":0,"byteOffset":9700,"byteLength":12},{"buffer":0,"byteOffset":9712,"byteLength":48}],"buffers":[{"byteLength":9760,"uri":"data:application/octet-stream;base64,"}],"accessors":[{"bufferView":0,"componentType":5126,"count":24,"max":[0.125,0.75,0.125],"min":[-0.125,-0.25,-0.125],"type":"VEC3"},{"bufferView":1,"componentType":5126,"count":24,"max":[1,1,1],"min":[-1,-1,-1],"type":"VEC3"},{"bufferView":2,"componentType":5126,"count":24,"max":[0.5,0.5078125],"min":[0.1171875,0.1328125],"type":"VEC2"},{"bufferView":3,"componentType":5123,"count":36,"max":[23],"min":[0],"type":"SCALAR"},{"bufferView":4,"componentType":5126,"count":24,"max":[0.125,0.5,0.125],"min":[-0.125,-0.5,-0.125],"type":"VEC3"},{"bufferView":5,"componentType":5126,"count":24,"max":[1,1,1],"min":[-1,-1,-1],"type":"VEC3"},{"bufferView":6,"componentType":5126,"count":24,"max":[0.5,0.4609375],"min":[0.078125,0],"type":"VEC2"},{"bufferView":7,"componentType":5123,"count":36,"max":[23],"min":[0],"type":"SCALAR"},{"bufferView":8,"componentType":5126,"count":24,"max":[0.125,0.75,0.125],"min":[-0.125,-0.25,-0.125],"type":"VEC3"},{"bufferView":9,"componentType":5126,"count":24,"max":[1,1,1],"min":[-1,-1,-1],"type":"VEC3"},{"bufferView":10,"componentType":5126,"count":24,"max":[0.5234375,0.53125],"min":[0.15625,0.15625],"type":"VEC2"},{"bufferView":11,"componentType":5123,"count":36,"max":[23],"min":[0],"type":"SCALAR"},{"bufferView":12,"componentType":5126,"count":24,"max":[0.125,0.75,0.125],"min":[-0.125,-0.25,-0.125],"type":"VEC3"},{"bufferView":13,"componentType":5126,"count":24,"max":[1,1,1],"min":[-1,-1,-1],"type":"VEC3"},{"bufferView":14,"componentType":5126,"count":24,"max":[0.5234375,0.5234375],"min":[0.1953125,0],"type":"VEC2"},{"bufferView":15,"componentType":5123,"count":36,"max":[23],"min":[0],"type":"SCALAR"},{"bufferView":16,"componentType":5126,"count":24,"max":[0.125,0.75,0.125],"min":[-0.125,-0.25,-0.125],"type":"VEC3"},{"bufferView":17,"componentType":5126,"count":24,"max":[1,1,1],"min":[-1,-1,-1],"type":"VEC3"},{"bufferView":18,"componentType":5126,"count":24,"max":[0.484375,0.5],"min":[0.078125,0],"type":"VEC2"},{"bufferView":19,"componentType":5123,"count":36,"max":[23],"min":[0],"type":"SCALAR"},{"bufferView":20,"componentType":5126,"count":24,"max":[0.125,0.75,0.125],"min":[-0.125,-0.25,-0.125],"type":"VEC3"},{"bufferView":21,"componentType":5126,"count":24,"max":[1,1,1],"min":[-1,-1,-1],"type":"VEC3"},{"bufferView":22,"componentType":5126,"count":24,"max":[0.484375,0.328125],"min":[0,0.078125],"type":"VEC2"},{"bufferView":23,"componentType":5123,"count":36,"max":[23],"min":[0],"type":"SCALAR"},{"bufferView":24,"componentType":5126,"count":24,"max":[0.125,0.75,0.125],"min":[-0.125,-0.25,-0.125],"type":"VEC3"},{"bufferView":25,"componentType":5126,"count":24,"max":[1,1,1],"min":[-1,-1,-1],"type":"VEC3"},{"bufferView":26,"componentType":5126,"count":24,"max":[0.5,0.3984375],"min":[0,0],"type":"VEC2"},{"bufferView":27,"componentType":5123,"count":36,"max":[23],"min":[0],"type":"SCALAR"},{"bufferView":28,"componentType":5126,"count":24,"max":[0.125,0.75,0.125],"min":[-0.125,-0.25,-0.125],"type":"VEC3"},{"bufferView":29,"componentType":5126,"count":24,"max":[1,1,1],"min":[-1,-1,-1],"type":"VEC3"},{"bufferView":30,"componentType":5126,"count":24,"max":[0.5,0.5],"min":[0.1171875,0],"type":"VEC2"},{"bufferView":31,"componentType":5123,"count":36,"max":[23],"min":[0],"type":"SCALAR"},{"bufferView":32,"componentType":5126,"count":24,"max":[0.125,0.5,0.125],"min":[-0.125,0,-0.125],"type":"VEC3"},{"bufferView":33,"componentType":5126,"count":24,"max":[1,1,1],"min":[-1,-1,-1],"type":"VEC3"},{"bufferView":34,"componentType":5126,"count":24,"max":[0.53125,0.5390625],"min":[0,0.15625],"type":"VEC2"},{"bufferView":35,"componentType":5123,"count":36,"max":[23],"min":[0],"type":"SCALAR"},{"bufferView":36,"componentType":5126,"count":24,"max":[0.4375,0.5,0.125],"min":[-0.4375,0,-0.125],"type":"VEC3"},{"bufferView":37,"componentType":5126,"count":24,"max":[0.936329185962677,1,1],"min":[-0.936329185962677,-1,-1],"type":"VEC3"},{"bufferView":38,"componentType":5126,"count":24,"max":[0.5,0.46875],"min":[0,0],"type":"VEC2"},{"bufferView":39,"componentType":5123,"count":36,"max":[23],"min":[0],"type":"SCALAR"},{"bufferView":40,"componentType":5126,"count":24,"max":[0.25,0.5,0.125],"min":[-0.25,-0.25,-0.125],"type":"VEC3"},{"bufferView":41,"componentType":5126,"count":24,"max":[0.9965457320213318,1,1],"min":[-0.9965457320213318,-1,-1],"type":"VEC3"},{"bufferView":42,"componentType":5126,"count":24,"max":[0.515625,0.5],"min":[0,0],"type":"VEC2"},{"bufferView":43,"componentType":5123,"count":36,"max":[23],"min":[0],"type":"SCALAR"},{"bufferView":44,"componentType":5126,"count":1,"max":[0],"min":[0],"type":"SCALAR"},{"bufferView":45,"componentType":5126,"count":1,"max":[0.6087614297866821,0,0,0.7933533191680908],"min":[0.6087614297866821,0,0,0.7933533191680908],"type":"VEC4"},{"bufferView":46,"componentType":5126,"count":2,"max":[1.0769200325012207],"min":[0],"type":"SCALAR"},{"bufferView":47,"componentType":5126,"count":2,"max":[0.518279492855072,0.00569347245618701,0.04324621707201004,-0.8540982007980347],"min":[-0.13040195405483246,-0.022628571838140488,0.03729073330760002,-0.9905012249946594],"type":"VEC4"},{"bufferView":48,"componentType":5126,"count":2,"max":[1.0769200325012207],"min":[0],"type":"SCALAR"},{"bufferView":49,"componentType":5126,"count":2,"max":[0.8427420854568481,0.3299107849597931,-0.039499711245298386,0.5361535549163818],"min":[0.7497792840003967,-0.027657996863126755,-0.23100601136684418,0.5250011086463928],"type":"VEC4"},{"bufferView":50,"componentType":5126,"count":2,"max":[1.0769200325012207],"min":[0],"type":"SCALAR"},{"bufferView":51,"componentType":5126,"count":2,"max":[0,0,0.6259234547615051,0.9914448857307434],"min":[0,0,0.13052618503570557,0.7798844575881958],"type":"VEC4"},{"bufferView":52,"componentType":5126,"count":1,"max":[0],"min":[0],"type":"SCALAR"},{"bufferView":53,"componentType":5126,"count":1,"max":[-0.6087614297866821,0,0,0.7933533191680908],"min":[-0.6087614297866821,0,0,0.7933533191680908],"type":"VEC4"},{"bufferView":54,"componentType":5126,"count":2,"max":[1.0769200325012207],"min":[0],"type":"SCALAR"},{"bufferView":55,"componentType":5126,"count":2,"max":[0,0,0.44228869676589966,1],"min":[0,0,0,0.8968727588653564],"type":"VEC4"},{"bufferView":56,"componentType":5126,"count":2,"max":[1.0769200325012207],"min":[0],"type":"SCALAR"},{"bufferView":57,"componentType":5126,"count":2,"max":[0,0,0.8660253882408142,1],"min":[0,0,0,0.5],"type":"VEC4"},{"bufferView":58,"componentType":5126,"count":3,"max":[1.0769200325012207],"min":[0],"type":"SCALAR"},{"bufferView":59,"componentType":5126,"count":3,"max":[1,0,0,1],"min":[0,0,0,6.123234262925839e-17],"type":"VEC4"},{"bufferView":60,"componentType":5126,"count":1,"max":[0],"min":[0],"type":"SCALAR"},{"bufferView":61,"componentType":5126,"count":1,"max":[0.5,0,0,0.8660253882408142],"min":[0.5,0,0,0.8660253882408142],"type":"VEC4"},{"bufferView":62,"componentType":5126,"count":1,"max":[0],"min":[0],"type":"SCALAR"},{"bufferView":63,"componentType":5126,"count":1,"max":[0.7660444378852844,0,0,0.6427876353263855],"min":[0.7660444378852844,0,0,0.6427876353263855],"type":"VEC4"},{"bufferView":64,"componentType":5126,"count":3,"max":[1.884619951248169],"min":[0],"type":"SCALAR"},{"bufferView":65,"componentType":5126,"count":3,"max":[0,0,0,1],"min":[0,0,-0.9978589415550232,0.06540312618017197],"type":"VEC4"},{"bufferView":66,"componentType":5126,"count":3,"max":[2],"min":[0],"type":"SCALAR"},{"bufferView":67,"componentType":5126,"count":3,"max":[0.5555702447891235,0,0,0.8433914184570312],"min":[-0.537299633026123,0,0,0.8314695954322815],"type":"VEC4"},{"bufferView":68,"componentType":5126,"count":3,"max":[2],"min":[0],"type":"SCALAR"},{"bufferView":69,"componentType":5126,"count":3,"max":[0.3826834261417389,0,0,0.9320078492164612],"min":[-0.36243805289268494,0,0,0.9238795042037964],"type":"VEC4"}],"materials":[{"pbrMetallicRoughness":{"metallicFactor":0,"roughnessFactor":1,"baseColorTexture":{"index":0}},"alphaMode":"MASK","alphaCutoff":0.05,"doubleSided":true}],"textures":[{"sampler":0,"source":0,"name":"Болвань1"}],"samplers":[{"magFilter":9728,"minFilter":9728,"wrapS":33071,"wrapT":33071}],"images":[{"mimeType":"image/png","uri":"data:image/png;base64,"}],"meshes":[{"primitives":[{"mode":4,"attributes":{"POSITION":0,"NORMAL":1,"TEXCOORD_0":2},"indices":3,"material":0}]},{"primitives":[{"mode":4,"attributes":{"POSITION":4,"NORMAL":5,"TEXCOORD_0":6},"indices":7,"material":0}]},{"primitives":[{"mode":4,"attributes":{"POSITION":8,"NORMAL":9,"TEXCOORD_0":10},"indices":11,"material":0}]},{"primitives":[{"mode":4,"attributes":{"POSITION":12,"NORMAL":13,"TEXCOORD_0":14},"indices":15,"material":0}]},{"primitives":[{"mode":4,"attributes":{"POSITION":16,"NORMAL":17,"TEXCOORD_0":18},"indices":19,"material":0}]},{"primitives":[{"mode":4,"attributes":{"POSITION":20,"NORMAL":21,"TEXCOORD_0":22},"indices":23,"material":0}]},{"primitives":[{"mode":4,"attributes":{"POSITION":24,"NORMAL":25,"TEXCOORD_0":26},"indices":27,"material":0}]},{"primitives":[{"mode":4,"attributes":{"POSITION":28,"NORMAL":29,"TEXCOORD_0":30},"indices":31,"material":0}]},{"primitives":[{"mode":4,"attributes":{"POSITION":32,"NORMAL":33,"TEXCOORD_0":34},"indices":35,"material":0}]},{"primitives":[{"mode":4,"attributes":{"POSITION":36,"NORMAL":37,"TEXCOORD_0":38},"indices":39,"material":0}]},{"primitives":[{"mode":4,"attributes":{"POSITION":40,"NORMAL":41,"TEXCOORD_0":42},"indices":43,"material":0}]}],"animations":[{"name":"animation","samplers":[{"input":44,"output":45,"interpolation":"LINEAR"},{"input":46,"output":47,"interpolation":"LINEAR"},{"input":48,"output":49,"interpolation":"LINEAR"},{"input":50,"output":51,"interpolation":"LINEAR"},{"input":52,"output":53,"interpolation":"LINEAR"},{"input":54,"output":55,"interpolation":"LINEAR"},{"input":56,"output":57,"interpolation":"LINEAR"},{"input":58,"output":59,"interpolation":"LINEAR"},{"input":60,"output":61,"interpolation":"LINEAR"},{"input":62,"output":63,"interpolation":"LINEAR"},{"input":64,"output":65,"interpolation":"LINEAR"}],"channels":[{"sampler":0,"target":{"node":41,"path":"rotation"}},{"sampler":1,"target":{"node":47,"path":"rotation"}},{"sampler":2,"target":{"node":9,"path":"rotation"}},{"sampler":3,"target":{"node":19,"path":"rotation"}},{"sampler":4,"target":{"node":3,"path":"rotation"}},{"sampler":5,"target":{"node":13,"path":"rotation"}},{"sampler":6,"target":{"node":30,"path":"rotation"}},{"sampler":7,"target":{"node":40,"path":"rotation"}},{"sampler":8,"target":{"node":24,"path":"rotation"}},{"sampler":9,"target":{"node":34,"path":"rotation"}},{"sampler":10,"target":{"node":54,"path":"rotation"}}]},{"name":"GO GO","samplers":[{"input":66,"output":67,"interpolation":"LINEAR"},{"input":68,"output":69,"interpolation":"LINEAR"}],"channels":[{"sampler":0,"target":{"node":9,"path":"rotation"}},{"sampler":1,"target":{"node":19,"path":"rotation"}}]}]}