{"asset":{"version":"2.0","generator":"Blockbench 4.12.5 glTF exporter"},"scenes":[{"nodes":[18],"name":"blockbench_export"}],"scene":0,"nodes":[{"translation":[0,0.03125,0],"name":"base","mesh":0},{"rotation":[0,-0.13052619222005157,0,0.9914448613738104],"translation":[0.475,0.69375,0.0125],"name":"leg","mesh":1},{"translation":[0,1.18125,0.1375],"name":"skirt","mesh":2},{"translation":[0,1.4375,0.1375],"name":"top","mesh":3},{"rotation":[0,0,0.7071067811865475,0.7071067811865476],"translation":[-0.3125,4,-0.16875],"name":"sleeve2","mesh":4},{"translation":[0.721875,4.21875,0.990625],"name":"wing1","mesh":5},{"translation":[-0.721875,4.21875,0.990625],"name":"wing2","mesh":6},{"translation":[0,4.5625,0.1],"name":"neck","mesh":7},{"translation":[0,4.778125,0.025],"name":"hair1","mesh":8},{"translation":[0,4.7625,0.025],"name":"head","mesh":9},{"translation":[0,4.778125,0.025],"name":"bang","mesh":10},{"rotation":[-0.1669494386758093,-0.05864397643074032,0.30256035638713774,0.9365607293161033],"translation":[0.4125,3.65,-0.15625],"name":"hand1","mesh":11},{"rotation":[-0.1669494386758093,0.05864397643074032,-0.30256035638713774,0.9365607293161033],"translation":[-0.4125,3.65,-0.15625],"name":"hand2","mesh":12},{"translation":[0.21875,3.9375,-0.45],"name":"hand3","mesh":13},{"translation":[-0.21875,3.9375,-0.45],"name":"hand4","mesh":14},{"rotation":[0,0,-0.7071067811865475,0.7071067811865476],"translation":[0.3125,4,-0.16875],"name":"sleeve1","mesh":15},{"rotation":[-0.5896181758553362,0.04475747900189147,0.05368041439355171,0.8046524640395738],"translation":[0.6875,4.684375,-0.125],"name":"hair2","mesh":16},{"rotation":[-0.5896181758553362,-0.04475747900189147,-0.05368041439355171,0.8046524640395738],"translation":[-0.6875,4.684375,-0.125],"name":"hair3","mesh":17},{"children":[0,1,2,3,4,5,6,7,8,9,10,11,12,13,14,15,16,17]}],"bufferViews":[{"buffer":0,"byteOffset":0,"byteLength":480,"target":34962,"byteStride":12},{"buffer":0,"byteOffset":480,"byteLength":480,"target":34962,"byteStride":12},{"buffer":0,"byteOffset":960,"byteLength":320,"target":34962,"byteStride":8},{"buffer":0,"byteOffset":1280,"byteLength":120,"target":34963},{"buffer":0,"byteOffset":1400,"byteLength":288,"target":34962,"byteStride":12},{"buffer":0,"byteOffset":1688,"byteLength":288,"target":34962,"byteStride":12},{"buffer":0,"byteOffset":1976,"byteLength":192,"target":34962,"byteStride":8},{"buffer":0,"byteOffset":2168,"byteLength":72,"target":34963},{"buffer":0,"byteOffset":2240,"byteLength":3216,"target":34962,"byteStride":12},{"buffer":0,"byteOffset":5456,"byteLength":3216,"target":34962,"byteStride":12},{"buffer":0,"byteOffset":8672,"byteLength":2144,"target":34962,"byteStride":8},{"buffer":0,"byteOffset":10816,"byteLength":780,"target":34963},{"buffer":0,"byteOffset":11596,"byteLength":2136,"target":34962,"byteStride":12},{"buffer":0,"byteOffset":13732,"byteLength":2136,"target":34962,"byteStride":12},{"buffer":0,"byteOffset":15868,"byteLength":1424,"target":34962,"byteStride":8},{"buffer":0,"byteOffset":17292,"byteLength":504,"target":34963},{"buffer":0,"byteOffset":17796,"byteLength":936,"target":34962,"byteStride":12},{"buffer":0,"byteOffset":18732,"byteLength":936,"target":34962,"byteStride":12},{"buffer":0,"byteOffset":19668,"byteLength":624,"target":34962,"byteStride":8},{"buffer":0,"byteOffset":20292,"byteLength":216,"target":34963},{"buffer":0,"byteOffset":20508,"byteLength":1056,"target":34962,"byteStride":12},{"buffer":0,"byteOffset":21564,"byteLength":1056,"target":34962,"byteStride":12},{"buffer":0,"byteOffset":22620,"byteLength":704,"target":34962,"byteStride":8},{"buffer":0,"byteOffset":23324,"byteLength":252,"target":34963},{"buffer":0,"byteOffset":23576,"byteLength":1056,"target":34962,"byteStride":12},{"buffer":0,"byteOffset":24632,"byteLength":1056,"target":34962,"byteStride":12},{"buffer":0,"byteOffset":25688,"byteLength":704,"target":34962,"byteStride":8},{"buffer":0,"byteOffset":26392,"byteLength":252,"target":34963},{"buffer":0,"byteOffset":26644,"byteLength":288,"target":34962,"byteStride":12},{"buffer":0,"byteOffset":26932,"byteLength":288,"target":34962,"byteStride":12},{"buffer":0,"byteOffset":27220,"byteLength":192,"target":34962,"byteStride":8},{"buffer":0,"byteOffset":27412,"byteLength":72,"target":34963},{"buffer":0,"byteOffset":27484,"byteLength":2832,"target":34962,"byteStride":12},{"buffer":0,"byteOffset":30316,"byteLength":2832,"target":34962,"byteStride":12},{"buffer":0,"byteOffset":33148,"byteLength":1888,"target":34962,"byteStride":8},{"buffer":0,"byteOffset":35036,"byteLength":696,"target":34963},{"buffer":0,"byteOffset":35732,"byteLength":1260,"target":34962,"byteStride":12},{"buffer":0,"byteOffset":36992,"byteLength":1260,"target":34962,"byteStride":12},{"buffer":0,"byteOffset":38252,"byteLength":840,"target":34962,"byteStride":8},{"buffer":0,"byteOffset":39092,"byteLength":296,"target":34963},{"buffer":0,"byteOffset":39388,"byteLength":2304,"target":34962,"byteStride":12},{"buffer":0,"byteOffset":41692,"byteLength":2304,"target":34962,"byteStride":12},{"buffer":0,"byteOffset":43996,"byteLength":1536,"target":34962,"byteStride":8},{"buffer":0,"byteOffset":45532,"byteLength":552,"target":34963},{"buffer":0,"byteOffset":46084,"byteLength":720,"target":34962,"byteStride":12},{"buffer":0,"byteOffset":46804,"byteLength":720,"target":34962,"byteStride":12},{"buffer":0,"byteOffset":47524,"byteLength":480,"target":34962,"byteStride":8},{"buffer":0,"byteOffset":48004,"byteLength":144,"target":34963},{"buffer":0,"byteOffset":48148,"byteLength":720,"target":34962,"byteStride":12},{"buffer":0,"byteOffset":48868,"byteLength":720,"target":34962,"byteStride":12},{"buffer":0,"byteOffset":49588,"byteLength":480,"target":34962,"byteStride":8},{"buffer":0,"byteOffset":50068,"byteLength":144,"target":34963},{"buffer":0,"byteOffset":50212,"byteLength":384,"target":34962,"byteStride":12},{"buffer":0,"byteOffset":50596,"byteLength":384,"target":34962,"byteStride":12},{"buffer":0,"byteOffset":50980,"byteLength":256,"target":34962,"byteStride":8},{"buffer":0,"byteOffset":51236,"byteLength":96,"target":34963},{"buffer":0,"byteOffset":51332,"byteLength":384,"target":34962,"byteStride":12},{"buffer":0,"byteOffset":51716,"byteLength":384,"target":34962,"byteStride":12},{"buffer":0,"byteOffset":52100,"byteLength":256,"target":34962,"byteStride":8},{"buffer":0,"byteOffset":52356,"byteLength":96,"target":34963},{"buffer":0,"byteOffset":52452,"byteLength":936,"target":34962,"byteStride":12},{"buffer":0,"byteOffset":53388,"byteLength":936,"target":34962,"byteStride":12},{"buffer":0,"byteOffset":54324,"byteLength":624,"target":34962,"byteStride":8},{"buffer":0,"byteOffset":54948,"byteLength":216,"target":34963},{"buffer":0,"byteOffset":55164,"byteLength":624,"target":34962,"byteStride":12},{"buffer":0,"byteOffset":55788,"byteLength":624,"target":34962,"byteStride":12},{"buffer":0,"byteOffset":56412,"byteLength":416,"target":34962,"byteStride":8},{"buffer":0,"byteOffset":56828,"byteLength":156,"target":34963},{"buffer":0,"byteOffset":56984,"byteLength":624,"target":34962,"byteStride":12},{"buffer":0,"byteOffset":57608,"byteLength":624,"target":34962,"byteStride":12},{"buffer":0,"byteOffset":58232,"byteLength":416,"target":34962,"byteStride":8},{"buffer":0,"byteOffset":58648,"byteLength":156,"target":34963}],"buffers":[{"byteLength":58804,"uri":"data:application/octet-stream;base64,"}],"accessors":[{"bufferView":0,"componentType":5126,"count":40,"max":[0.6875,0.6875,0.6875],"min":[-0.6875,0,-0.6875],"type":"VEC3"},{"bufferView":1,"componentType":5126,"count":40,"max":[1,1,1],"min":[-1,-1,-1],"type":"VEC3"},{"bufferView":2,"componentType":5126,"count":40,"max":[0.5859375,0.46875],"min":[0.31640625,0.0390625],"type":"VEC2"},{"bufferView":3,"componentType":5123,"count":60,"max":[39],"min":[0],"type":"SCALAR"},{"bufferView":4,"componentType":5126,"count":24,"max":[-0.21875,0.4312500059604645,0.40625],"min":[-0.46875,0,-0.40625],"type":"VEC3"},{"bufferView":5,"componentType":5126,"count":24,"max":[1,0.9357362389564514,1],"min":[-1,-1,-1],"type":"VEC3"},{"bufferView":6,"componentType":5126,"count":24,"max":[0.5390625,0.39453125],"min":[0,0.05078125],"type":"VEC2"},{"bufferView":7,"componentType":5123,"count":36,"max":[23],"min":[0],"type":"SCALAR"},{"bufferView":8,"componentType":5126,"count":268,"max":[0.5375000238418579,2.612499952316284,0.5],"min":[-0.5,-0.48750001192092896,-0.6812499761581421],"type":"VEC3"},{"bufferView":9,"componentType":5126,"count":268,"max":[0.9988581538200378,1,0.9581692814826965],"min":[-0.9991335868835449,-1,-0.9983545541763306],"type":"VEC3"},{"bufferView":10,"componentType":5126,"count":268,"max":[0.566969096660614,0.5869140625],"min":[0.03515625,0],"type":"VEC2"},{"bufferView":11,"componentType":5123,"count":390,"max":[267],"min":[0],"type":"SCALAR"},{"bufferView":12,"componentType":5126,"count":178,"max":[0.39375001192092896,3.1500000953674316,0.3125],"min":[-0.39375001192092896,2.299999952316284,-0.38749998807907104],"type":"VEC3"},{"bufferView":13,"componentType":5126,"count":178,"max":[0.9970991015434265,1,0.9847386479377747],"min":[-0.9970991015434265,-1,-0.9964484572410583],"type":"VEC3"},{"bufferView":14,"componentType":5126,"count":178,"max":[0.5975544452667236,0.5599324703216553],"min":[0.0126953125,0.16745471954345703],"type":"VEC2"},{"bufferView":15,"componentType":5123,"count":252,"max":[177],"min":[0],"type":"SCALAR"},{"bufferView":16,"componentType":5126,"count":78,"max":[0.5422725081443787,0.3187499940395355,0.4937500059604645],"min":[-2.099533796310425,-0.062736876308918,-0.02500000037252903],"type":"VEC3"},{"bufferView":17,"componentType":5126,"count":78,"max":[0.9683912992477417,1,0.9963485598564148],"min":[-0.9742247462272644,-1,-0.999997615814209],"type":"VEC3"},{"bufferView":18,"componentType":5126,"count":78,"max":[0.5729765295982361,0.5706863403320312],"min":[0.05078125,0.125],"type":"VEC2"},{"bufferView":19,"componentType":5123,"count":108,"max":[77],"min":[0],"type":"SCALAR"},{"bufferView":20,"componentType":5126,"count":88,"max":[0.8731681108474731,1.2564986944198608,-0.21250000596046448],"min":[-0.706250011920929,-1.9397531747817993,-1.4147281646728516],"type":"VEC3"},{"bufferView":21,"componentType":5126,"count":88,"max":[0.839570164680481,1,0.975966215133667],"min":[-0.7577477693557739,-1,-0.9607221484184265],"type":"VEC3"},{"bufferView":22,"componentType":5126,"count":88,"max":[0.5618289709091187,0.5785616636276245],"min":[0.07058093696832657,0],"type":"VEC2"},{"bufferView":23,"componentType":5123,"count":126,"max":[87],"min":[0],"type":"SCALAR"},{"bufferView":24,"componentType":5126,"count":88,"max":[0.706250011920929,1.2564986944198608,-0.21250000596046448],"min":[-0.8731681108474731,-1.9397531747817993,-1.4147281646728516],"type":"VEC3"},{"bufferView":25,"componentType":5126,"count":88,"max":[0.7577477693557739,1,0.975966215133667],"min":[-0.839570164680481,-1,-0.9607221484184265],"type":"VEC3"},{"bufferView":26,"componentType":5126,"count":88,"max":[0.5771252512931824,0.55859375],"min":[0,0],"type":"VEC2"},{"bufferView":27,"componentType":5123,"count":126,"max":[87],"min":[0],"type":"SCALAR"},{"bufferView":28,"componentType":5126,"count":24,"max":[0.09091874957084656,0.375,0.08124999701976776],"min":[-0.09091874957084656,0,-0.08124999701976776],"type":"VEC3"},{"bufferView":29,"componentType":5126,"count":24,"max":[0.8726919889450073,0,1],"min":[-0.8726919889450073,0,-1],"type":"VEC3"},{"bufferView":30,"componentType":5126,"count":24,"max":[0.3203125,0.3984375],"min":[0.02734375,0.08984375],"type":"VEC2"},{"bufferView":31,"componentType":5123,"count":36,"max":[23],"min":[0],"type":"SCALAR"},{"bufferView":32,"componentType":5126,"count":236,"max":[0.3954150080680847,0.6964593529701233,0.3874174952507019],"min":[-0.3954150080680847,-0.5562499761581421,-0.2722949981689453],"type":"VEC3"},{"bufferView":33,"componentType":5126,"count":236,"max":[0.9408187866210938,0.9759368896484375,0.984330952167511],"min":[-0.9408187866210938,-0.9999880790710449,-0.9978870153427124],"type":"VEC3"},{"bufferView":34,"componentType":5126,"count":236,"max":[0.6279724836349487,0.5517578125],"min":[0.00011511718912515789,0.0002964138984680176],"type":"VEC2"},{"bufferView":35,"componentType":5123,"count":348,"max":[235],"min":[0],"type":"SCALAR"},{"bufferView":36,"componentType":5126,"count":105,"max":[0.2733437418937683,0.574999988079071,0.24375000596046448],"min":[-0.2733437418937683,-0.09375,-0.27812498807907104],"type":"VEC3"},{"bufferView":37,"componentType":5126,"count":105,"max":[0.8767446279525757,0.33648985624313354,1],"min":[-0.8767446279525757,-0.9612264633178711,-0.9266573190689087],"type":"VEC3"},{"bufferView":38,"componentType":5126,"count":105,"max":[0.6056943535804749,0.5675261616706848],"min":[0,0.024349987506866455],"type":"VEC2"},{"bufferView":39,"componentType":5123,"count":147,"max":[104],"min":[0],"type":"SCALAR"},{"bufferView":40,"componentType":5126,"count":192,"max":[0.44444000720977783,0.6964593529701233,0.228104367852211],"min":[-0.44444000720977783,0.03766937553882599,-0.24620124697685242],"type":"VEC3"},{"bufferView":41,"componentType":5126,"count":192,"max":[0.9831926226615906,0.971088707447052,0.9744786620140076],"min":[-0.9831926226615906,-0.9776385426521301,-0.9472768306732178],"type":"VEC3"},{"bufferView":42,"componentType":5126,"count":192,"max":[0.5751482844352722,0.5703696012496948],"min":[0.0004960156511515379,0.000682532787322998],"type":"VEC2"},{"bufferView":43,"componentType":5123,"count":276,"max":[191],"min":[0],"type":"SCALAR"},{"bufferView":44,"componentType":5126,"count":60,"max":[0.24037562310695648,0.5410362482070923,0.09706562757492065],"min":[-0.13067813217639923,-0.2083793729543686,-0.14093250036239624],"type":"VEC3"},{"bufferView":45,"componentType":5126,"count":60,"max":[0.7797648906707764,1,0.9997775554656982],"min":[-0.8300030827522278,-0.7403437495231628,-0.989467203617096],"type":"VEC3"},{"bufferView":46,"componentType":5126,"count":60,"max":[0.576171875,0.5726566314697266],"min":[0.10953609645366669,0],"type":"VEC2"},{"bufferView":47,"componentType":5123,"count":72,"max":[59],"min":[0],"type":"SCALAR"},{"bufferView":48,"componentType":5126,"count":60,"max":[0.13067813217639923,0.5410362482070923,0.09706562757492065],"min":[-0.24037562310695648,-0.2083793729543686,-0.14093250036239624],"type":"VEC3"},{"bufferView":49,"componentType":5126,"count":60,"max":[0.8300030827522278,1,0.9997775554656982],"min":[-0.7797648906707764,-0.7403437495231628,-0.989467203617096],"type":"VEC3"},{"bufferView":50,"componentType":5126,"count":60,"max":[0.5712650418281555,0.5830078125],"min":[0.01953125,0.0282595157623291],"type":"VEC2"},{"bufferView":51,"componentType":5123,"count":72,"max":[59],"min":[0],"type":"SCALAR"},{"bufferView":52,"componentType":5126,"count":32,"max":[-0.0625,0.5625,0.24375000596046448],"min":[-0.21875,0.05000000074505806,0.03125],"type":"VEC3"},{"bufferView":53,"componentType":5126,"count":32,"max":[0.9941444396972656,1,0.9962406158447266],"min":[0,-1,-0.9997637867927551],"type":"VEC3"},{"bufferView":54,"componentType":5126,"count":32,"max":[0.560546875,0.572265625],"min":[0.0390625,0],"type":"VEC2"},{"bufferView":55,"componentType":5123,"count":48,"max":[31],"min":[0],"type":"SCALAR"},{"bufferView":56,"componentType":5126,"count":32,"max":[0.21875,0.5625,0.24375000596046448],"min":[0.0625,0.05000000074505806,0.03125],"type":"VEC3"},{"bufferView":57,"componentType":5126,"count":32,"max":[0,1,0.9962406158447266],"min":[-0.9941444396972656,-1,-0.9997637867927551],"type":"VEC3"},{"bufferView":58,"componentType":5126,"count":32,"max":[0.556640625,0.5830078125],"min":[0.0234375,0.17578125],"type":"VEC2"},{"bufferView":59,"componentType":5123,"count":48,"max":[31],"min":[0],"type":"SCALAR"},{"bufferView":60,"componentType":5126,"count":78,"max":[2.099533796310425,0.3187499940395355,0.4937500059604645],"min":[-0.5422725081443787,-0.062736876308918,-0.02500000037252903],"type":"VEC3"},{"bufferView":61,"componentType":5126,"count":78,"max":[0.9742247462272644,1,0.9963485598564148],"min":[-0.9683912992477417,-1,-0.999997615814209],"type":"VEC3"},{"bufferView":62,"componentType":5126,"count":78,"max":[0.5556640625,0.5667800903320312],"min":[0.32441598176956177,0.00019532442092895508],"type":"VEC2"},{"bufferView":63,"componentType":5123,"count":108,"max":[77],"min":[0],"type":"SCALAR"},{"bufferView":64,"componentType":5126,"count":52,"max":[-0.33862313628196716,0.12343187630176544,0.1678687483072281],"min":[-0.6263949871063232,-0.37498998641967773,-0.5],"type":"VEC3"},{"bufferView":65,"componentType":5126,"count":52,"max":[0.9924578666687012,0.9830882549285889,0.8227831721305847],"min":[-0.9909088611602783,-0.9953892827033997,-1],"type":"VEC3"},{"bufferView":66,"componentType":5126,"count":52,"max":[0.5354583859443665,0.5567013025283813],"min":[0.07421875,0],"type":"VEC2"},{"bufferView":67,"componentType":5123,"count":78,"max":[51],"min":[0],"type":"SCALAR"},{"bufferView":68,"componentType":5126,"count":52,"max":[0.6263949871063232,0.12343187630176544,0.1678687483072281],"min":[0.33862313628196716,-0.37498998641967773,-0.5],"type":"VEC3"},{"bufferView":69,"componentType":5126,"count":52,"max":[0.9909088611602783,0.9830882549285889,0.8227831721305847],"min":[-0.9924578666687012,-0.9953892827033997,-1],"type":"VEC3"},{"bufferView":70,"componentType":5126,"count":52,"max":[0.546875,0.4013671875],"min":[0.08998086303472519,0.0008778572082519531],"type":"VEC2"},{"bufferView":71,"componentType":5123,"count":78,"max":[51],"min":[0],"type":"SCALAR"}],"materials":[{"pbrMetallicRoughness":{"metallicFactor":0,"roughnessFactor":1,"baseColorTexture":{"index":0}},"alphaMode":"MASK","alphaCutoff":0.05,"doubleSided":true}],"textures":[{"sampler":0,"source":0,"name":"angel.png"}],"samplers":[{"magFilter":9728,"minFilter":9728,"wrapS":33071,"wrapT":33071}],"images":[{"mimeType":"image/png","uri":"data:image/png;base64,"}],"meshes":[{"primitives":[{"mode":4,"attributes":{"POSITION":0,"NORMAL":1,"TEXCOORD_0":2},"indices":3,"material":0}]},{"primitives":[{"mode":4,"attributes":{"POSITION":4,"NORMAL":5,"TEXCOORD_0":6},"indices":7,"material":0}]},{"primitives":[{"mode":4,"attributes":{"POSITION":8,"NORMAL":9,"TEXCOORD_0":10},"indices":11,"material":0}]},{"primitives":[{"mode":4,"attributes":{"POSITION":12,"NORMAL":13,"TEXCOORD_0":14},"indices":15,"material":0}]},{"primitives":[{"mode":4,"attributes":{"POSITION":16,"NORMAL":17,"TEXCOORD_0":18},"indices":19,"material":0}]},{"primitives":[{"mode":4,"attributes":{"POSITION":20,"NORMAL":21,"TEXCOORD_0":22},"indices":23,"material":0}]},{"primitives":[{"mode":4,"attributes":{"POSITION":24,"NORMAL":25,"TEXCOORD_0":26},"indices":27,"material":0}]},{"primitives":[{"mode":4,"attributes":{"POSITION":28,"NORMAL":29,"TEXCOORD_0":30},"indices":31,"material":0}]},{"primitives":[{"mode":4,"attributes":{"POSITION":32,"NORMAL":33,"TEXCOORD_0":34},"indices":35,"material":0}]},{"primitives":[{"mode":4,"attributes":{"POSITION":36,"NORMAL":37,"TEXCOORD_0":38},"indices":39,"material":0}]},{"primitives":[{"mode":4,"attributes":{"POSITION":40,"NORMAL":41,"TEXCOORD_0":42},"indices":43,"material":0}]},{"primitives":[{"mode":4,"attributes":{"POSITION":44,"NORMAL":45,"TEXCOORD_0":46},"indices":47,"material":0}]},{"primitives":[{"mode":4,"attributes":{"POSITION":48,"NORMAL":49,"TEXCOORD_0":50},"indices":51,"material":0}]},{"primitives":[{"mode":4,"attributes":{"POSITION":52,"NORMAL":53,"TEXCOORD_0":54},"indices":55,"material":0}]},{"primitives":[{"mode":4,"attributes":{"POSITION":56,"NORMAL":57,"TEXCOORD_0":58},"indices":59,"material":0}]},{"primitives":[{"mode":4,"attributes":{"POSITION":60,"NORMAL":61,"TEXCOORD_0":62},"indices":63,"material":0}]},{"primitives":[{"mode":4,"attributes":{"POSITION":64,"NORMAL":65,"TEXCOORD_0":66},"indices":67,"material":0}]},{"primitives":[{"mode":4,"attributes":{"POSITION":68,"NORMAL":69,"TEXCOORD_0":70},"indices":71,"material":0}]}]}