<?xml version="1.0" encoding="UTF-8" standalone="no"?>
<svg
   xmlns:dc="http://purl.org/dc/elements/1.1/"
   xmlns:cc="http://creativecommons.org/ns#"
   xmlns:rdf="http://www.w3.org/1999/02/22-rdf-syntax-ns#"
   xmlns:svg="http://www.w3.org/2000/svg"
   xmlns="http://www.w3.org/2000/svg"
   xmlns:xlink="http://www.w3.org/1999/xlink"
   xmlns:sodipodi="http://sodipodi.sourceforge.net/DTD/sodipodi-0.dtd"
   xmlns:inkscape="http://www.inkscape.org/namespaces/inkscape"
   viewBox="0 0 599.99999 599.99998"
   id="svg25"
   height="600"
   width="600"
   version="1.1"
   inkscape:version="0.91 r13725"
   sodipodi:docname="vkontakte_2007_mini.svg">
  <sodipodi:namedview
     pagecolor="#ffffff"
     bordercolor="#666666"
     borderopacity="1"
     objecttolerance="10"
     gridtolerance="10"
     guidetolerance="10"
     inkscape:pageopacity="0"
     inkscape:pageshadow="2"
     inkscape:window-width="1680"
     inkscape:window-height="987"
     id="namedview19"
     showgrid="false"
     fit-margin-top="0"
     fit-margin-left="0"
     fit-margin-right="0"
     fit-margin-bottom="0"
     inkscape:zoom="1.3033333"
     inkscape:cx="300"
     inkscape:cy="300"
     inkscape:window-x="-8"
     inkscape:window-y="-8"
     inkscape:window-maximized="1"
     inkscape:current-layer="svg25"
     showguides="false" />
  <metadata
     id="metadata31">
    <rdf:RDF>
      <cc:Work
         rdf:about="">
        <dc:format>image/svg+xml</dc:format>
        <dc:type
           rdf:resource="http://purl.org/dc/dcmitype/StillImage" />
        <dc:title></dc:title>
      </cc:Work>
    </rdf:RDF>
  </metadata>
  <defs
     id="defs29">
    <linearGradient
       inkscape:collect="always"
       id="linearGradient4256">
      <stop
         style="stop-color:#005987;stop-opacity:1"
         offset="0"
         id="stop4258" />
      <stop
         style="stop-color:#4790b5;stop-opacity:1"
         offset="1"
         id="stop4260" />
    </linearGradient>
    <linearGradient
       gradientUnits="userSpaceOnUse"
       y2="860.07788"
       x2="71.757118"
       y1="677.08636"
       x1="71.757118"
       id="grad2-4"
       xlink:href="#grad1"
       gradientTransform="matrix(1.8231696,0,0,0.54849532,-24.185014,-370.71663)" />
    <linearGradient
       id="linearGradient4239">
      <stop
         id="stop2-1"
         stop-opacity="1.0000"
         stop-color="#005987"
         offset="0%" />
      <stop
         id="stop4-0"
         stop-opacity="1.0000"
         stop-color="#4790b5"
         offset="100%" />
    </linearGradient>
    <defs
       id="defs8">
      <linearGradient
         id="grad1">
        <stop
           offset="0%"
           stop-color="#005987"
           stop-opacity="1.0000"
           id="stop2" />
        <stop
           offset="100%"
           stop-color="#4790b5"
           stop-opacity="1.0000"
           id="stop4" />
      </linearGradient>
      <linearGradient
         gradientTransform="matrix(1.8231696,0,0,0.54849532,-130.8254,-371.3787)"
         xlink:href="#grad1"
         id="grad2"
         x1="71.757118"
         y1="677.08636"
         x2="71.757118"
         y2="860.07788"
         gradientUnits="userSpaceOnUse" />
    </defs>
    <linearGradient
       inkscape:collect="always"
       xlink:href="#linearGradient4256"
       id="linearGradient4262"
       x1="130.90694"
       y1="371.43997"
       x2="130.83089"
       y2="471.72006"
       gradientUnits="userSpaceOnUse" />
  </defs>
  <path
     inkscape:connector-curvature="0"
     d="m 0.33970236,499.96973 332.94509764,0 0,99.6905 -332.94509764,0 z"
     style="fill:none"
     id="path12" />
  <g
     id="Layer1001"
     transform="matrix(5.9778818,0,0,5.9778818,-782.05878,-2220.058)">
    <g
       id="Layer1002">
      <path
         inkscape:connector-curvature="0"
         d="m 146.51906,371.3787 68.98268,0 c 8.63211,0 15.69366,7.06155 15.69366,15.69366 l 0,68.98268 c 0,8.63211 -7.06155,15.69366 -15.69366,15.69366 l -68.98268,0 c -8.63211,0 -15.69366,-7.06155 -15.69366,-15.69366 l 0,-68.98268 c 0,-8.63211 7.06155,-15.69366 15.69366,-15.69366 z m 60.32049,61.328 c 0,2.90076 -0.54854,5.45388 -1.64456,7.64657 -1.09603,2.19247 -2.56699,3.99678 -4.42526,5.4413 -2.19247,1.72433 -4.59864,2.94085 -7.23217,3.67623 -2.6203,0.73494 -5.94932,1.09602 -10.00006,1.09602 l -23.34151,0 0,-58.31421 20.60135,0 c 4.27766,0 7.52628,0.16081 9.73218,0.4948 2.20591,0.32119 4.2781,1.00282 6.20291,2.04553 2.08541,1.12268 3.64957,2.63352 4.67905,4.50501 1.02948,1.88536 1.55094,4.05074 1.55094,6.51066 0,2.84766 -0.70893,5.37412 -2.13873,7.59346 -1.41721,2.21914 -3.38255,3.84984 -5.88235,4.90598 l 0,0.30776 c 3.59583,0.76224 6.48358,2.29911 8.64939,4.63874 2.1656,2.33963 3.24882,5.49461 3.24882,9.45215 z m -18.75672,-23.95723 c 0,-0.94908 -0.24058,-1.91138 -0.72151,-2.90097 -0.48158,-0.98896 -1.23039,-1.71111 -2.25966,-2.15195 -0.96251,-0.42762 -2.09884,-0.65519 -3.42243,-0.69571 -1.32337,-0.0399 -3.28849,-0.0531 -5.89557,-0.0531 l -1.01605,0 0,12.33905 1.84548,0 c 2.4998,0 4.26423,-0.0267 5.26705,-0.0798 1.00218,-0.0539 2.04488,-0.32119 3.11489,-0.81535 1.16256,-0.54876 1.97855,-1.31015 2.41961,-2.27309 0.44084,-0.97573 0.66819,-2.09884 0.66819,-3.36911 z m 3.67644,23.68915 c 0,-1.80431 -0.36065,-3.20809 -1.09602,-4.22414 -0.73559,-1.02948 -1.83161,-1.79172 -3.28871,-2.31254 -0.88232,-0.34764 -2.11207,-0.53532 -3.66301,-0.57521 -1.55072,-0.0399 -3.63634,-0.0531 -6.24321,-0.0531 l -2.70071,0 0,14.59806 0.7887,0 c 3.81059,0 6.44411,-0.0264 7.90121,-0.0798 1.4571,-0.0538 2.95408,-0.40096 4.46514,-1.05614 1.3366,-0.57521 2.29953,-1.41722 2.91419,-2.5271 0.61509,-1.10925 0.92242,-2.36608 0.92242,-3.77007 z"
         style="fill:url(#linearGradient4262);fill-opacity:1;fill-rule:evenodd"
         id="path18" />
    </g>
    <path
       inkscape:connector-curvature="0"
       d="m 148.7029,375.9912 c -7.2865,0 -13.265,5.9785 -13.265,13.265 l 0,64.615 c 0,7.2862 5.9787,13.2649 13.265,13.2649 l 64.4694,0 c 7.2859,0 13.2649,-5.9789 13.2649,-13.2649 l 0,-64.615 c 0,-7.2863 -5.9787,-13.265 -13.2649,-13.265 z m 0,-1.8993 c -8.3349,0 -15.1643,6.8294 -15.1643,15.1643 l 0,64.615 c 0,8.3346 6.8296,15.1642 15.1643,15.1642 l 64.4694,0 c 8.3343,0 15.1642,-6.8298 15.1642,-15.1642 l 0,-64.615 c 0,-8.3347 -6.8296,-15.1643 -15.1642,-15.1643 z"
       style="fill:#ffffff;fill-rule:evenodd"
       id="path21"
       sodipodi:nodetypes="ssssssssssssssssss" />
  </g>
</svg>
